<svg width="76" height="40" viewBox="0 0 76 40" fill="none" xmlns="http://www.w3.org/2000/svg">
<path fill-rule="evenodd" clip-rule="evenodd" d="M45.4591 14.537C45.4591 13.666 46.2875 12.7245 48.052 12.4879C50.1193 12.2857 52.2007 12.6608 54.0853 13.5754L55.1606 8.40971C53.326 7.72923 51.3918 7.39224 49.4462 7.41408C43.3949 7.41408 39.1609 10.7295 39.1249 15.4596C39.1249 18.9588 42.1601 20.8972 44.4186 22.0929C46.6759 23.2887 47.5929 24.0502 47.5761 25.1201C47.5761 26.7501 45.6701 27.4751 43.9235 27.494C41.7406 27.5406 39.5816 27.0109 37.6444 25.9533L36.55 31.299C38.7191 32.1639 41.0219 32.6004 43.3421 32.5866C49.7459 32.5866 53.9271 29.3065 53.9271 24.2503C53.9271 20.4063 50.8463 18.736 48.3829 17.3993C46.7226 16.4993 45.3428 15.7504 45.3704 14.5899L45.4591 14.5358V14.537ZM15.929 24.3573L22.298 7.79295H28.7545L18.8564 32.1511H12.3999L7.48022 12.6867C7.43688 12.2314 7.2811 11.7958 7.02829 11.423C6.77304 11.0472 6.43055 10.746 6.03332 10.5482C4.10959 9.60496 2.08355 8.91134 0 8.48271L0.141453 7.77533H10.531C11.211 7.77068 11.8706 8.01906 12.3927 8.47642C12.9106 8.93332 13.2522 9.56519 13.3541 10.2587L15.929 24.3573ZM26.3066 32.1335L31.3534 7.79421H37.455L32.4119 32.1335H26.3066ZM66.4013 14.4451L63.1563 23.5064H68.1659L66.4013 14.4451ZM63.8863 8.2637C64.3546 7.93858 64.905 7.76845 65.4663 7.77533L70.6173 7.79421L75.5214 32.1499H69.8597L69.1177 28.5261H61.3042L60.0336 32.1511H53.7017L62.8566 9.58784C63.0604 9.04912 63.4188 8.58718 63.8863 8.2637Z" fill="#1A5F9C"/>
</svg>
