<svg width="55" height="41" viewBox="0 0 55 41" fill="none" xmlns="http://www.w3.org/2000/svg">
<mask id="mask0_76_9132" style="mask-type:luminance" maskUnits="userSpaceOnUse" x="0" y="0" width="55" height="41">
<path d="M0 0H54.4008V40.2969H0V0Z" fill="white"/>
</mask>
<g mask="url(#mask0_76_9132)">
<path d="M32.8099 9.58984H21.5654V30.7084H32.8099V9.58984Z" fill="#FF5F00"/>
<path d="M22.2766 20.1486C22.2766 16.0444 24.0971 12.1265 27.1669 9.58879C21.5986 4.99999 13.4967 6.00741 9.10582 11.8656C4.75084 17.6854 5.71548 26.1186 11.3197 30.7074C13.5758 32.5733 16.376 33.5895 19.2618 33.5895C22.1475 33.5895 24.9477 32.5733 27.2038 30.7074C25.6687 29.446 24.4283 27.8412 23.5755 26.0128C22.7226 24.1844 22.2793 22.1797 22.2786 20.1486H22.2766Z" fill="#EB001B"/>
<path d="M47.976 20.1486C47.976 27.5733 42.2289 33.5805 35.1247 33.5805C32.2337 33.5805 29.4496 32.5731 27.2007 30.7074C32.769 26.1186 33.7327 17.6854 29.3427 11.8283C28.6996 11.0072 27.9856 10.2235 27.2007 9.58879C32.769 4.99999 40.8728 6.00741 45.2268 11.8656C47.0147 14.2277 47.9831 17.1457 47.976 20.1486Z" fill="#F79E1B"/>
</g>
</svg>
