<svg width="80" height="40" viewBox="0 0 80 40" fill="none" xmlns="http://www.w3.org/2000/svg">
<g clip-path="url(#clip0_76_9139)">
<path d="M37.3215 23.2371V32.5371H34.3215V9.53711H42.1215C44.0215 9.53711 45.8215 10.2371 47.2215 11.5371C48.6215 12.7371 49.3215 14.5371 49.3215 16.4371C49.3215 18.3371 48.6215 20.0371 47.2215 21.3371C45.8215 22.6371 44.1215 23.3371 42.1215 23.3371L37.3215 23.2371ZM37.3215 12.3371V20.3371H42.3215C43.4215 20.3371 44.5215 19.9371 45.2215 19.1371C46.8215 17.6371 46.8215 15.1371 45.3215 13.6371L45.2215 13.5371C44.4215 12.7371 43.4215 12.2371 42.3215 12.3371H37.3215Z" fill="#040404"/>
<path d="M56.2215 16.3371C58.4215 16.3371 60.1215 16.9371 61.4215 18.1371C62.7215 19.3371 63.3215 20.9371 63.3215 22.9371V32.5371H60.5215V30.3371H60.4215C59.2215 32.1371 57.5215 33.0371 55.5215 33.0371C53.8215 33.0371 52.3215 32.5371 51.1215 31.5371C50.0215 30.5371 49.3215 29.1371 49.3215 27.6371C49.3215 26.0371 49.9215 24.7371 51.1215 23.7371C52.3215 22.7371 54.0215 22.3371 56.0215 22.3371C57.8215 22.3371 59.2215 22.6371 60.3215 23.3371V22.6371C60.3215 21.6371 59.9215 20.6371 59.1215 20.0371C58.3215 19.3371 57.3215 18.9371 56.2215 18.9371C54.5215 18.9371 53.2215 19.6371 52.3215 21.0371L49.7215 19.4371C51.3215 17.3371 53.4215 16.3371 56.2215 16.3371ZM52.4215 27.7371C52.4215 28.5371 52.8215 29.2371 53.4215 29.6371C54.1215 30.1371 54.9215 30.4371 55.7215 30.4371C56.9215 30.4371 58.1215 29.9371 59.0215 29.0371C60.0215 28.1371 60.5215 27.0371 60.5215 25.8371C59.6215 25.1371 58.3215 24.7371 56.6215 24.7371C55.4215 24.7371 54.4215 25.0371 53.6215 25.6371C52.8215 26.1371 52.4215 26.8371 52.4215 27.7371Z" fill="#040404"/>
<path d="M79.5215 16.8371L69.6215 39.5371H66.6215L70.3215 31.6371L63.8215 16.9371H67.0215L71.7215 28.2371H71.8215L76.4215 16.9371H79.5215V16.8371Z" fill="#040404"/>
<path d="M25.4214 21.2371C25.4214 20.3371 25.3214 19.4371 25.2214 18.5371H12.7214V23.6371H19.8214C19.5214 25.2371 18.6214 26.7371 17.2214 27.6371V30.9371H21.5214C24.0214 28.6371 25.4214 25.2371 25.4214 21.2371Z" fill="#4285F4"/>
<path d="M12.7214 34.1371C16.3214 34.1371 19.3214 32.9371 21.5214 30.9371L17.2214 27.6371C16.0214 28.4371 14.5214 28.9371 12.7214 28.9371C9.32139 28.9371 6.32139 26.6371 5.32139 23.4371H0.921387V26.8371C3.22139 31.3371 7.72139 34.1371 12.7214 34.1371Z" fill="#34A853"/>
<path d="M5.32158 23.4371C4.72158 21.8371 4.72158 20.0371 5.32158 18.3371V14.9371H0.921582C-0.978418 18.6371 -0.978418 23.0371 0.921582 26.8371L5.32158 23.4371Z" fill="#FBBC04"/>
<path d="M12.7215 12.9371C14.6215 12.9371 16.4215 13.6371 17.8215 14.9371L21.6215 11.1371C19.2215 8.93713 16.0215 7.63713 12.8215 7.73713C7.82148 7.73713 3.22148 10.5371 1.02148 15.0371L5.42148 18.4371C6.32148 15.2371 9.32148 12.9371 12.7215 12.9371Z" fill="#EA4335"/>
</g>
<defs>
<clipPath id="clip0_76_9139">
<rect width="80" height="40" fill="white"/>
</clipPath>
</defs>
</svg>
