<svg width="83" height="40" viewBox="0 0 83 40" fill="none" xmlns="http://www.w3.org/2000/svg">
<g clip-path="url(#clip0_76_9147)">
<path d="M14.8885 11.3668C13.9159 12.4815 12.3596 13.3606 10.8034 13.235C10.6089 11.7279 11.3708 10.1266 12.2624 9.13752C13.235 7.99147 14.9372 7.1751 16.3151 7.1123C16.4772 8.68224 15.845 10.2208 14.8885 11.3668ZM16.2989 13.5333C14.0456 13.4077 12.1165 14.7736 11.0465 14.7736C9.96041 14.7736 8.32311 13.5961 6.5399 13.6275C4.22174 13.6589 2.06569 14.9306 0.882288 16.9558C-1.54935 21.0062 0.250062 27.0034 2.60065 30.3002C3.75162 31.933 5.12955 33.7227 6.94518 33.6599C8.66354 33.5971 9.3444 32.5766 11.4194 32.5766C13.5106 32.5766 14.1104 33.6599 15.926 33.6285C17.8065 33.5971 18.9899 31.9958 20.1409 30.363C21.454 28.5105 21.9889 26.7051 22.0213 26.6109C21.9889 26.5795 18.3901 25.245 18.3577 21.226C18.3253 17.8663 21.1946 16.265 21.3243 16.1708C19.7032 13.8473 17.1743 13.5961 16.2989 13.5333ZM29.3163 8.98053V33.4558H33.2393V25.088H38.67C43.6305 25.088 47.1159 21.7912 47.1159 17.0186C47.1159 12.246 43.6954 8.98053 38.7997 8.98053H29.3163ZM33.2393 12.1832H37.7622C41.1665 12.1832 43.1118 13.9415 43.1118 17.0343C43.1118 20.1271 41.1665 21.9011 37.746 21.9011H33.2393V12.1832ZM54.2811 33.6442C56.7452 33.6442 59.0309 32.4353 60.0684 30.52H60.1495V33.4558H63.7807V21.2731C63.7807 17.7408 60.8628 15.4644 56.3723 15.4644C52.2061 15.4644 49.126 17.7722 49.0126 20.9434H52.5465C52.8383 19.4363 54.2811 18.4472 56.2588 18.4472C58.6581 18.4472 60.0036 19.5305 60.0036 21.5243V22.8744L55.1079 23.157C50.5526 23.4239 48.0885 25.2293 48.0885 28.3692C48.0885 31.5405 50.6337 33.6442 54.2811 33.6442ZM55.3348 30.7398C53.2436 30.7398 51.9143 29.7664 51.9143 28.275C51.9143 26.7365 53.195 25.8416 55.6428 25.7003L60.0036 25.4334V26.815C60.0036 29.1071 57.9934 30.7398 55.3348 30.7398ZM68.6278 40.1123C72.4536 40.1123 74.253 38.6994 75.8254 34.4134L82.7151 15.6998H78.7272L74.1071 30.1589H74.026L69.4059 15.6998H65.3045L71.951 33.5186L71.5944 34.6018C70.9946 36.4387 70.0219 37.1451 68.2874 37.1451C67.9794 37.1451 67.3795 37.1137 67.1364 37.0823V40.0181C67.3633 40.0809 68.336 40.1123 68.6278 40.1123Z" fill="#040404"/>
</g>
<defs>
<clipPath id="clip0_76_9147">
<rect width="83" height="40" fill="white"/>
</clipPath>
</defs>
</svg>
