<svg width="90" height="90" viewBox="0 0 90 90" fill="none" xmlns="http://www.w3.org/2000/svg">
<path d="M76.4862 63.1742V35.274C76.4862 30.6496 72.7735 26.8875 68.2102 26.8875H63.8568C63.4302 31.8595 60.1799 36.0241 55.7439 37.7219V51.6931H51.664V38.5352C51.5447 38.5387 47.0401 38.5407 47.0401 38.5407V47.6357H42.9603V38.5407C42.9603 38.5407 38.4558 38.5387 38.3364 38.5352V51.6931H34.2565V37.7219C29.8205 36.0241 26.5703 31.8595 26.1437 26.8876H21.7903C17.2267 26.8876 13.5142 30.6498 13.5142 35.2741V63.1742H76.4862ZM47.0401 51.77V58.354H42.9603V51.77H47.0401Z" fill="url(#paint0_linear_131_4302)"/>
<path d="M10.1851 67.3083V68.8453C10.1851 73.7846 14.1506 77.8029 19.0248 77.8029H70.9752C75.8494 77.8029 79.8149 73.7846 79.8149 68.8453V67.3083H10.1851Z" fill="url(#paint1_linear_131_4302)"/>
<path d="M38.6955 34.4064H51.3048C56.0106 34.4064 59.8254 30.5407 59.8254 25.7722C59.8254 21.6605 56.9883 18.2226 53.1902 17.3528C51.6976 14.2981 48.5918 12.1968 45.0001 12.1968C41.4085 12.1968 38.3026 14.298 36.81 17.3526C33.0119 18.2225 30.1748 21.6604 30.1748 25.7721C30.1749 30.5407 33.9896 34.4064 38.6955 34.4064Z" fill="url(#paint2_linear_131_4302)"/>
<defs>
<linearGradient id="paint0_linear_131_4302" x1="42.7634" y1="26.3173" x2="43.7053" y2="62.6566" gradientUnits="userSpaceOnUse">
<stop stop-color="#E60A14"/>
<stop offset="1" stop-color="#FF0000"/>
</linearGradient>
<linearGradient id="paint1_linear_131_4302" x1="42.5267" y1="67.1434" x2="42.598" y2="77.6598" gradientUnits="userSpaceOnUse">
<stop stop-color="#E60A14"/>
<stop offset="1" stop-color="#FF0000"/>
</linearGradient>
<linearGradient id="paint2_linear_131_4302" x1="43.9469" y1="11.8478" x2="44.6959" y2="34.0792" gradientUnits="userSpaceOnUse">
<stop stop-color="#E60A14"/>
<stop offset="1" stop-color="#FF0000"/>
</linearGradient>
</defs>
</svg>
