<svg width="70" height="71" viewBox="0 0 70 71" fill="none" xmlns="http://www.w3.org/2000/svg">
<g clip-path="url(#clip0_51_4507)">
<path d="M66.3012 53.5884V25.6881C66.3012 21.0638 62.5885 17.3016 58.0251 17.3016H53.6718C53.2452 22.2737 49.9949 26.4382 45.5588 28.1361V42.1073H41.4789V28.9494C41.3597 28.9528 36.8551 28.9549 36.8551 28.9549V38.0499H32.7752V28.9549C32.7752 28.9549 28.2707 28.9528 28.1513 28.9494V42.1073H24.0715V28.1361C19.6354 26.4382 16.3852 22.2737 15.9586 17.3018H11.6053C7.04165 17.3018 3.3291 21.064 3.3291 25.6883V53.5884H66.3012ZM36.8551 42.1842V48.7681H32.7752V42.1842H36.8551Z" fill="url(#paint0_linear_51_4507)"/>
<path d="M0 57.7228V59.2598C0 64.199 3.9655 68.2174 8.83973 68.2174H60.7902C65.6644 68.2174 69.6299 64.199 69.6299 59.2598V57.7228H0Z" fill="url(#paint1_linear_51_4507)"/>
<path d="M28.5099 24.8207H41.1192C45.8251 24.8207 49.6399 20.955 49.6399 16.1865C49.6399 12.0749 46.8027 8.63693 43.0047 7.76708C41.5121 4.7124 38.4062 2.61108 34.8146 2.61108C31.2229 2.61108 28.1171 4.71226 26.6245 7.76694C22.8264 8.63679 19.9893 12.0747 19.9893 16.1864C19.9894 20.955 23.8041 24.8207 28.5099 24.8207Z" fill="url(#paint2_linear_51_4507)"/>
</g>
<defs>
<linearGradient id="paint0_linear_51_4507" x1="32.5784" y1="16.7314" x2="33.5202" y2="53.0708" gradientUnits="userSpaceOnUse">
<stop stop-color="#E60A14"/>
<stop offset="1" stop-color="#FF0000"/>
</linearGradient>
<linearGradient id="paint1_linear_51_4507" x1="32.3417" y1="57.5579" x2="32.413" y2="68.0742" gradientUnits="userSpaceOnUse">
<stop stop-color="#E60A14"/>
<stop offset="1" stop-color="#FF0000"/>
</linearGradient>
<linearGradient id="paint2_linear_51_4507" x1="33.7614" y1="2.2621" x2="34.5104" y2="24.4935" gradientUnits="userSpaceOnUse">
<stop stop-color="#E60A14"/>
<stop offset="1" stop-color="#FF0000"/>
</linearGradient>
<clipPath id="clip0_51_4507">
<rect width="69.6299" height="70.8285" fill="white"/>
</clipPath>
</defs>
</svg>
