<svg width="90" height="90" viewBox="0 0 90 90" fill="none" xmlns="http://www.w3.org/2000/svg">
<path d="M80.0401 75.915C80.0401 75.09 79.3651 74.415 78.5401 74.415H11.4751C10.6501 74.415 9.9751 75.09 9.9751 75.915C9.9751 80.37 13.6051 84 18.0751 84H71.9401C76.4101 84 80.0401 80.37 80.0401 75.915Z" fill="url(#paint0_linear_131_4308)"/>
<path d="M53.0549 18.4199C50.5499 19.1549 47.8049 19.5449 44.9999 19.5449C42.1799 19.5449 39.4499 19.1549 36.9299 18.4199C36.8099 19.1399 36.7199 19.8749 36.7199 20.6399V29.5499L31.3949 32.7299C30.9449 32.9999 30.6599 33.4949 30.6599 34.0199V46.7849C30.6599 47.3249 30.9449 47.8199 31.4249 48.0899C31.6499 48.2249 31.9049 48.2849 32.1599 48.2849C32.4299 48.2849 32.6999 48.2099 32.9249 48.0749L38.6549 44.6549H51.3449L57.0599 48.0749C57.2999 48.2099 57.5699 48.2849 57.8399 48.2849C58.0949 48.2849 58.3499 48.2249 58.5749 48.0899C59.0399 47.8199 59.3399 47.3249 59.3399 46.7849V34.0199C59.3399 33.4949 59.0549 32.9999 58.6049 32.7299L53.2649 29.5499V20.6399C53.2649 19.8899 53.1749 19.1549 53.0549 18.4199Z" fill="url(#paint1_linear_131_4308)"/>
<path d="M46.0049 6.37491C45.4349 5.87991 44.5799 5.87991 44.0099 6.37491C43.7849 6.58491 39.7499 10.1999 37.7849 15.2999C42.1799 16.8899 47.8049 16.8899 52.2149 15.2999C50.2499 10.1999 46.2149 6.58491 46.0049 6.37491Z" fill="url(#paint2_linear_131_4308)"/>
<path d="M43.5 53.6851V63.3001C43.5 64.1251 44.175 64.8001 45 64.8001C45.825 64.8001 46.5 64.1251 46.5 63.3001V53.6851C46.5 52.8601 45.825 52.1851 45 52.1851C44.175 52.1851 43.5 52.8601 43.5 53.6851Z" fill="url(#paint3_linear_131_4308)"/>
<path d="M48.3149 48.8701V58.4851C48.3149 59.3101 48.9899 59.9851 49.8149 59.9851C50.6399 59.9851 51.3149 59.3101 51.3149 58.4851V48.8701C51.3149 48.0451 50.6399 47.3701 49.8149 47.3701C48.9899 47.3701 48.3149 48.0451 48.3149 48.8701Z" fill="url(#paint4_linear_131_4308)"/>
<path d="M74.4 38.73C74.4 35.79 72.015 33.405 69.075 33.405H62.265C62.295 33.615 62.34 33.81 62.34 34.02V46.785C62.34 48.375 61.47 49.875 60.09 50.685C59.43 51.075 58.65 51.285 57.84 51.285C57.06 51.285 56.28 51.075 55.575 50.685L54.315 49.935V58.485C54.315 60.975 52.305 62.985 49.815 62.985C49.71 62.985 49.605 62.97 49.5 62.955V63.3C49.5 65.775 47.49 67.8 45 67.8C42.525 67.8 40.5 65.775 40.5 63.3V62.955C40.395 62.97 40.305 62.985 40.2 62.985C37.71 62.985 35.7 60.975 35.7 58.485V49.92L34.485 50.655C33.795 51.06 32.985 51.285 32.175 51.285C31.365 51.285 30.57 51.075 29.895 50.67C28.56 49.905 27.675 48.405 27.675 46.785V34.02C27.675 33.81 27.72 33.615 27.75 33.405H20.94C18 33.405 15.615 35.79 15.615 38.73V71.415H74.4V38.73Z" fill="url(#paint5_linear_131_4308)"/>
<path d="M38.6851 48.8701V58.4851C38.6851 59.3101 39.3601 59.9851 40.1851 59.9851C41.0101 59.9851 41.6851 59.3101 41.6851 58.4851V48.8701C41.6851 48.0451 41.0101 47.3701 40.1851 47.3701C39.3601 47.3701 38.6851 48.0451 38.6851 48.8701Z" fill="url(#paint6_linear_131_4308)"/>
<defs>
<linearGradient id="paint0_linear_131_4308" x1="42.5189" y1="74.2644" x2="42.578" y2="83.8694" gradientUnits="userSpaceOnUse">
<stop stop-color="#E60A14"/>
<stop offset="1" stop-color="#FF0000"/>
</linearGradient>
<linearGradient id="paint1_linear_131_4308" x1="43.9812" y1="17.9506" x2="45.3799" y2="47.8134" gradientUnits="userSpaceOnUse">
<stop stop-color="#E60A14"/>
<stop offset="1" stop-color="#FF0000"/>
</linearGradient>
<linearGradient id="paint2_linear_131_4308" x1="44.4874" y1="5.83885" x2="44.8306" y2="16.3386" gradientUnits="userSpaceOnUse">
<stop stop-color="#E60A14"/>
<stop offset="1" stop-color="#FF0000"/>
</linearGradient>
<linearGradient id="paint3_linear_131_4308" x1="44.8934" y1="51.9868" x2="47.2019" y2="64.192" gradientUnits="userSpaceOnUse">
<stop stop-color="#E60A14"/>
<stop offset="1" stop-color="#FF0000"/>
</linearGradient>
<linearGradient id="paint4_linear_131_4308" x1="49.7084" y1="47.1719" x2="52.0168" y2="59.377" gradientUnits="userSpaceOnUse">
<stop stop-color="#E60A14"/>
<stop offset="1" stop-color="#FF0000"/>
</linearGradient>
<linearGradient id="paint5_linear_131_4308" x1="42.9194" y1="32.8078" x2="44.0263" y2="70.8661" gradientUnits="userSpaceOnUse">
<stop stop-color="#E60A14"/>
<stop offset="1" stop-color="#FF0000"/>
</linearGradient>
<linearGradient id="paint6_linear_131_4308" x1="40.0785" y1="47.1719" x2="42.3869" y2="59.377" gradientUnits="userSpaceOnUse">
<stop stop-color="#E60A14"/>
<stop offset="1" stop-color="#FF0000"/>
</linearGradient>
</defs>
</svg>
