<svg width="90" height="90" viewBox="0 0 90 90" fill="none" xmlns="http://www.w3.org/2000/svg">
<path d="M80.0396 75.915C80.0396 75.09 79.3646 74.415 78.5396 74.415H11.4746C10.6496 74.415 9.97461 75.09 9.97461 75.915C9.97461 80.37 13.6046 84 18.0746 84H71.9396C76.4096 84 80.0396 80.37 80.0396 75.915Z" fill="url(#paint0_linear_120_4024)"/>
<path d="M53.0552 18.4199C50.5502 19.1549 47.8052 19.5449 45.0002 19.5449C42.1802 19.5449 39.4502 19.1549 36.9302 18.4199C36.8102 19.1399 36.7202 19.8749 36.7202 20.6399V29.5499L31.3952 32.7299C30.9452 32.9999 30.6602 33.4949 30.6602 34.0199V46.7849C30.6602 47.3249 30.9452 47.8199 31.4252 48.0899C31.6502 48.2249 31.9052 48.2849 32.1602 48.2849C32.4302 48.2849 32.7002 48.2099 32.9252 48.0749L38.6552 44.6549H51.3452L57.0602 48.0749C57.3002 48.2099 57.5702 48.2849 57.8402 48.2849C58.0952 48.2849 58.3502 48.2249 58.5752 48.0899C59.0402 47.8199 59.3402 47.3249 59.3402 46.7849V34.0199C59.3402 33.4949 59.0552 32.9999 58.6052 32.7299L53.2652 29.5499V20.6399C53.2652 19.8899 53.1752 19.1549 53.0552 18.4199Z" fill="url(#paint1_linear_120_4024)"/>
<path d="M46.0052 6.37491C45.4352 5.87991 44.5802 5.87991 44.0102 6.37491C43.7852 6.58491 39.7502 10.1999 37.7852 15.2999C42.1802 16.8899 47.8052 16.8899 52.2152 15.2999C50.2502 10.1999 46.2152 6.58491 46.0052 6.37491Z" fill="url(#paint2_linear_120_4024)"/>
<path d="M43.5 53.6851V63.3001C43.5 64.1251 44.175 64.8001 45 64.8001C45.825 64.8001 46.5 64.1251 46.5 63.3001V53.6851C46.5 52.8601 45.825 52.1851 45 52.1851C44.175 52.1851 43.5 52.8601 43.5 53.6851Z" fill="url(#paint3_linear_120_4024)"/>
<path d="M48.3154 48.8701V58.4851C48.3154 59.3101 48.9904 59.9851 49.8154 59.9851C50.6404 59.9851 51.3154 59.3101 51.3154 58.4851V48.8701C51.3154 48.0451 50.6404 47.3701 49.8154 47.3701C48.9904 47.3701 48.3154 48.0451 48.3154 48.8701Z" fill="url(#paint4_linear_120_4024)"/>
<path d="M74.4002 38.73C74.4002 35.79 72.0152 33.405 69.0752 33.405H62.2652C62.2952 33.615 62.3402 33.81 62.3402 34.02V46.785C62.3402 48.375 61.4702 49.875 60.0902 50.685C59.4302 51.075 58.6502 51.285 57.8402 51.285C57.0602 51.285 56.2802 51.075 55.5752 50.685L54.3152 49.935V58.485C54.3152 60.975 52.3052 62.985 49.8152 62.985C49.7102 62.985 49.6052 62.97 49.5002 62.955V63.3C49.5002 65.775 47.4902 67.8 45.0002 67.8C42.5252 67.8 40.5002 65.775 40.5002 63.3V62.955C40.3952 62.97 40.3052 62.985 40.2002 62.985C37.7102 62.985 35.7002 60.975 35.7002 58.485V49.92L34.4852 50.655C33.7952 51.06 32.9852 51.285 32.1752 51.285C31.3652 51.285 30.5702 51.075 29.8952 50.67C28.5602 49.905 27.6752 48.405 27.6752 46.785V34.02C27.6752 33.81 27.7202 33.615 27.7502 33.405H20.9402C18.0002 33.405 15.6152 35.79 15.6152 38.73V71.415H74.4002V38.73Z" fill="url(#paint5_linear_120_4024)"/>
<path d="M38.6846 48.8701V58.4851C38.6846 59.3101 39.3596 59.9851 40.1846 59.9851C41.0096 59.9851 41.6846 59.3101 41.6846 58.4851V48.8701C41.6846 48.0451 41.0096 47.3701 40.1846 47.3701C39.3596 47.3701 38.6846 48.0451 38.6846 48.8701Z" fill="url(#paint6_linear_120_4024)"/>
<defs>
<linearGradient id="paint0_linear_120_4024" x1="42.5184" y1="74.2644" x2="42.5775" y2="83.8694" gradientUnits="userSpaceOnUse">
<stop stop-color="#E60A14"/>
<stop offset="1" stop-color="#FF0000"/>
</linearGradient>
<linearGradient id="paint1_linear_120_4024" x1="43.9814" y1="17.9506" x2="45.3801" y2="47.8134" gradientUnits="userSpaceOnUse">
<stop stop-color="#E60A14"/>
<stop offset="1" stop-color="#FF0000"/>
</linearGradient>
<linearGradient id="paint2_linear_120_4024" x1="44.4876" y1="5.83885" x2="44.8309" y2="16.3386" gradientUnits="userSpaceOnUse">
<stop stop-color="#E60A14"/>
<stop offset="1" stop-color="#FF0000"/>
</linearGradient>
<linearGradient id="paint3_linear_120_4024" x1="44.8934" y1="51.9868" x2="47.2019" y2="64.192" gradientUnits="userSpaceOnUse">
<stop stop-color="#E60A14"/>
<stop offset="1" stop-color="#FF0000"/>
</linearGradient>
<linearGradient id="paint4_linear_120_4024" x1="49.7089" y1="47.1719" x2="52.0173" y2="59.377" gradientUnits="userSpaceOnUse">
<stop stop-color="#E60A14"/>
<stop offset="1" stop-color="#FF0000"/>
</linearGradient>
<linearGradient id="paint5_linear_120_4024" x1="42.9197" y1="32.8078" x2="44.0265" y2="70.8661" gradientUnits="userSpaceOnUse">
<stop stop-color="#E60A14"/>
<stop offset="1" stop-color="#FF0000"/>
</linearGradient>
<linearGradient id="paint6_linear_120_4024" x1="40.078" y1="47.1719" x2="42.3864" y2="59.377" gradientUnits="userSpaceOnUse">
<stop stop-color="#E60A14"/>
<stop offset="1" stop-color="#FF0000"/>
</linearGradient>
</defs>
</svg>
