<svg width="90" height="90" viewBox="0 0 90 90" fill="none" xmlns="http://www.w3.org/2000/svg">
<path d="M31.8164 40.2744C30.5133 40.2744 29.4531 41.3346 29.4531 42.6377V45.0088H34.1797V42.6377C34.1797 41.3346 33.1195 40.2744 31.8164 40.2744Z" fill="url(#paint0_linear_131_4148)"/>
<path d="M49.7031 40.2744H47.3438V45.0088H49.7031C51.0084 45.0088 52.0703 43.9469 52.0703 42.6418C52.0703 41.3366 51.0083 40.2744 49.7031 40.2744Z" fill="url(#paint1_linear_131_4148)"/>
<path d="M62.16 19.6941L65.1883 14.3945H71.3005C72.2689 17.1334 74.8828 19.1016 77.9492 19.1016C81.837 19.1016 85 15.9386 85 12.0508C85 8.16297 81.837 5 77.9492 5C74.883 5 72.2689 6.96813 71.3005 9.70703H62.468L58.0934 17.3623C56.1795 16.452 54.157 15.7347 52.0508 15.2358V5H47.3633V14.5047C46.5833 14.4448 45.7952 14.4141 45 14.4141C44.2048 14.4141 43.4167 14.4447 42.6367 14.5047V5H37.9492V15.2358C35.843 15.7347 33.8203 16.4519 31.9066 17.3623L27.532 9.70703H18.6995C17.7311 6.96813 15.117 5 12.0508 5C8.16297 5 5 8.16297 5 12.0508C5 15.9386 8.16297 19.1016 12.0508 19.1016C15.117 19.1016 17.7311 17.1334 18.6995 14.3945H24.8117L27.84 19.6941C24.4095 22.0277 21.4758 25.0391 19.2339 28.5352H5V33.2227H16.7737C15.5419 36.1641 14.7558 39.3366 14.503 42.6562H5V47.3438H14.503C14.7558 50.6634 15.5417 53.8359 16.7736 56.7773H5V61.4648H19.2339C21.4758 64.9609 24.4097 67.9723 27.84 70.3059L24.8117 75.6055H18.6995C17.7311 72.8666 15.1172 70.8984 12.0508 70.8984C8.16297 70.8984 5 74.0614 5 77.9492C5 81.837 8.16297 85 12.0508 85C15.117 85 17.7311 83.0319 18.6995 80.293H27.532L31.9066 72.6377C33.8205 73.548 35.843 74.2653 37.9492 74.7642V85H42.6367V75.4953C43.4167 75.5552 44.2048 75.5859 45 75.5859C45.7952 75.5859 46.5833 75.5553 47.3633 75.4953V85H52.0508V74.7642C54.157 74.2653 56.1797 73.5481 58.0934 72.6377L62.468 80.293H71.3005C72.2689 83.0319 74.883 85 77.9492 85C81.837 85 85 81.837 85 77.9492C85 74.0614 81.837 70.8984 77.9492 70.8984C74.883 70.8984 72.2689 72.8666 71.3005 75.6055H65.1883L62.16 70.3059C65.5905 67.9723 68.5242 64.9609 70.7661 61.4648H85V56.7773H73.2263C74.4581 53.8359 75.2442 50.6634 75.4969 47.3438H85V42.6562H75.497C75.2442 39.3366 74.4583 36.1641 73.2264 33.2227H85V28.5352H70.7661C68.5242 25.0391 65.5903 22.0277 62.16 19.6941ZM38.8672 54.4141H34.1797V49.6964H29.4531V54.4131H24.7656V42.638C24.7656 38.7502 27.9286 35.5872 31.8164 35.5872C35.7042 35.5872 38.8672 38.75 38.8672 42.6378V54.4141ZM49.7031 49.6964H47.3438V54.4131H42.6562V35.587H49.7031C53.5931 35.587 56.7578 38.7517 56.7578 42.6417C56.7578 46.5317 53.593 49.6964 49.7031 49.6964ZM64.5092 54.4141H59.8217V35.5859H64.5092V54.4141Z" fill="url(#paint2_linear_131_4148)"/>
<defs>
<linearGradient id="paint0_linear_131_4148" x1="31.6485" y1="40.2" x2="31.8618" y2="44.9348" gradientUnits="userSpaceOnUse">
<stop stop-color="#E60A14"/>
<stop offset="1" stop-color="#FF0000"/>
</linearGradient>
<linearGradient id="paint1_linear_131_4148" x1="49.5391" y1="40.2" x2="49.7525" y2="44.9348" gradientUnits="userSpaceOnUse">
<stop stop-color="#E60A14"/>
<stop offset="1" stop-color="#FF0000"/>
</linearGradient>
<linearGradient id="paint2_linear_131_4148" x1="42.1584" y1="3.74293" x2="45.757" y2="83.7506" gradientUnits="userSpaceOnUse">
<stop stop-color="#E60A14"/>
<stop offset="1" stop-color="#FF0000"/>
</linearGradient>
</defs>
</svg>
