<svg width="80" height="80" viewBox="0 0 80 80" fill="none" xmlns="http://www.w3.org/2000/svg">
<g clip-path="url(#clip0_120_4034)">
<path d="M26.8164 35.2744C25.5133 35.2744 24.4531 36.3346 24.4531 37.6377V40.0088H29.1797V37.6377C29.1797 36.3346 28.1195 35.2744 26.8164 35.2744Z" fill="url(#paint0_linear_120_4034)"/>
<path d="M44.7031 35.2744H42.3438V40.0088H44.7031C46.0084 40.0088 47.0703 38.9469 47.0703 37.6418C47.0703 36.3366 46.0083 35.2744 44.7031 35.2744Z" fill="url(#paint1_linear_120_4034)"/>
<path d="M57.16 14.6941L60.1883 9.39453H66.3005C67.2689 12.1334 69.8828 14.1016 72.9492 14.1016C76.837 14.1016 80 10.9386 80 7.05078C80 3.16297 76.837 0 72.9492 0C69.883 0 67.2689 1.96813 66.3005 4.70703H57.468L53.0934 12.3623C51.1795 11.452 49.157 10.7347 47.0508 10.2358V0H42.3633V9.50469C41.5833 9.44484 40.7952 9.41406 40 9.41406C39.2048 9.41406 38.4167 9.44469 37.6367 9.50469V0H32.9492V10.2358C30.843 10.7347 28.8203 11.4519 26.9066 12.3623L22.532 4.70703H13.6995C12.7311 1.96813 10.117 0 7.05078 0C3.16297 0 0 3.16297 0 7.05078C0 10.9386 3.16297 14.1016 7.05078 14.1016C10.117 14.1016 12.7311 12.1334 13.6995 9.39453H19.8117L22.84 14.6941C19.4095 17.0277 16.4758 20.0391 14.2339 23.5352H0V28.2227H11.7737C10.5419 31.1641 9.75578 34.3366 9.50297 37.6562H0V42.3438H9.50297C9.75578 45.6634 10.5417 48.8359 11.7736 51.7773H0V56.4648H14.2339C16.4758 59.9609 19.4097 62.9723 22.84 65.3059L19.8117 70.6055H13.6995C12.7311 67.8666 10.1172 65.8984 7.05078 65.8984C3.16297 65.8984 0 69.0614 0 72.9492C0 76.837 3.16297 80 7.05078 80C10.117 80 12.7311 78.0319 13.6995 75.293H22.532L26.9066 67.6377C28.8205 68.548 30.843 69.2653 32.9492 69.7642V80H37.6367V70.4953C38.4167 70.5552 39.2048 70.5859 40 70.5859C40.7952 70.5859 41.5833 70.5553 42.3633 70.4953V80H47.0508V69.7642C49.157 69.2653 51.1797 68.5481 53.0934 67.6377L57.468 75.293H66.3005C67.2689 78.0319 69.883 80 72.9492 80C76.837 80 80 76.837 80 72.9492C80 69.0614 76.837 65.8984 72.9492 65.8984C69.883 65.8984 67.2689 67.8666 66.3005 70.6055H60.1883L57.16 65.3059C60.5905 62.9723 63.5242 59.9609 65.7661 56.4648H80V51.7773H68.2263C69.4581 48.8359 70.2442 45.6634 70.4969 42.3438H80V37.6562H70.497C70.2442 34.3366 69.4583 31.1641 68.2264 28.2227H80V23.5352H65.7661C63.5242 20.0391 60.5903 17.0277 57.16 14.6941ZM33.8672 49.4141H29.1797V44.6964H24.4531V49.4131H19.7656V37.638C19.7656 33.7502 22.9286 30.5872 26.8164 30.5872C30.7042 30.5872 33.8672 33.75 33.8672 37.6378V49.4141ZM44.7031 44.6964H42.3438V49.4131H37.6562V30.587H44.7031C48.5931 30.587 51.7578 33.7517 51.7578 37.6417C51.7578 41.5317 48.593 44.6964 44.7031 44.6964ZM59.5092 49.4141H54.8217V30.5859H59.5092V49.4141Z" fill="url(#paint2_linear_120_4034)"/>
</g>
<defs>
<linearGradient id="paint0_linear_120_4034" x1="26.6485" y1="35.2" x2="26.8618" y2="39.9348" gradientUnits="userSpaceOnUse">
<stop stop-color="#E60A14"/>
<stop offset="1" stop-color="#FF0000"/>
</linearGradient>
<linearGradient id="paint1_linear_120_4034" x1="44.5391" y1="35.2" x2="44.7525" y2="39.9348" gradientUnits="userSpaceOnUse">
<stop stop-color="#E60A14"/>
<stop offset="1" stop-color="#FF0000"/>
</linearGradient>
<linearGradient id="paint2_linear_120_4034" x1="37.1584" y1="-1.25707" x2="40.757" y2="78.7506" gradientUnits="userSpaceOnUse">
<stop stop-color="#E60A14"/>
<stop offset="1" stop-color="#FF0000"/>
</linearGradient>
<clipPath id="clip0_120_4034">
<rect width="80" height="80" fill="white"/>
</clipPath>
</defs>
</svg>
