<svg width="67" height="85" viewBox="0 0 67 85" fill="none" xmlns="http://www.w3.org/2000/svg">
<path fill-rule="evenodd" clip-rule="evenodd" d="M9.03523 0L0.128119 6.35158C2.08818 10.1849 2.55959 13.5095 2.59681 16.9086C3.24189 61.5806 -14.0513 67.101 32.8289 84.5431C82.2149 67.1135 62.4282 61.5806 63.0733 16.9086C63.1229 13.5095 63.5943 10.1849 65.5544 6.35158L56.6473 0C53.8933 1.11649 11.7892 1.11649 9.03523 0Z" fill="#F9191B"/>
<path fill-rule="evenodd" clip-rule="evenodd" d="M42.391 16.3636C42.391 16.3636 42.1091 15.7274 41.5583 15.5309C41.0074 15.3344 41.3359 15.8774 41.716 16.2136C42.0962 16.5472 42.5229 16.692 42.391 16.3636ZM36.456 19.1126C36.456 19.1126 36.0164 19.2626 35.5043 19.1333C34.9923 19.0014 34.8216 18.5954 34.8216 18.5954C34.8216 18.5954 34.8552 19.1074 35.2535 19.3815C35.6543 19.6582 36.3422 19.3686 36.4534 19.1126H36.456ZM36.4767 15.037C36.4767 15.037 36.8853 14.9051 37.3637 14.9154C37.8421 14.9258 37.9145 14.9982 37.9145 14.9982C37.9145 14.9982 37.793 15.3137 37.3844 15.3757C36.9758 15.4378 36.4767 15.0395 36.4767 15.0395V15.037ZM31.5864 12.7535C30.6089 13.1569 29.7736 13.7724 28.7366 14C27.6996 14.2275 26.704 13.8422 26.704 13.8422C26.704 13.8422 26.3885 14.7654 26.8359 15.399C27.2858 16.0326 27.6531 16.1386 27.6531 16.1386C27.6531 16.1386 26.4376 16.8239 26.0678 18.1971C25.698 19.5703 25.8558 20.0461 25.3023 20.6539C24.7489 21.2616 24.1671 21.2874 24.1671 21.2874C24.1671 21.2874 24.5627 22.2391 25.3023 22.371C26.042 22.5029 26.254 22.371 26.254 22.371C26.254 22.371 26.1221 24.1657 25.3567 24.6959C24.5912 25.2234 24.0636 25.0915 24.0636 25.0915C24.0636 25.0915 24.1955 25.963 25.1187 26.2268C26.042 26.4906 26.598 26.3845 26.598 26.3845C26.598 26.3845 25.9773 27.494 26.3988 28.9422C26.8204 30.3903 28.072 31.2877 28.072 31.2877C28.072 31.2877 27.7306 30.5765 27.6375 29.7205C27.5444 28.8646 27.6763 28.5361 27.6763 28.5361C27.6763 28.5361 27.8858 29.8524 28.6771 30.7627C29.4685 31.673 30.4305 32.3169 30.1538 33.2919C29.8771 34.2668 28.809 33.7134 28.809 33.7134C28.809 33.7134 29.4892 34.7737 30.1538 34.8461C30.8184 34.9185 31.1468 34.9625 31.5321 34.8461C31.5218 34.3211 31.5192 33.7936 31.5425 33.2686C31.5942 32.0687 31.708 30.667 31.8761 29.4749L31.8916 29.3585L31.7209 29.0921C31.196 28.3215 30.7796 27.5974 30.4046 26.7311C29.6495 24.9907 29.1504 23.0796 29.1504 21.1737C29.1504 19.5884 29.3702 17.9411 29.9417 16.4515C30.2029 15.7714 30.3426 15.249 30.9244 14.7939C30.9555 14.5146 31.0253 14.0568 31.1313 13.7853C31.2528 13.4698 31.4184 13.1879 31.5502 12.8802C31.5658 12.8466 31.5787 12.8052 31.589 12.7586L31.5864 12.7535ZM35.2147 13.3327C34.788 13.0069 35.0668 8.62458 36.0939 4.95956C36.0034 4.93629 33.4096 12.4794 33.3165 12.469C33.3967 12.6371 33.4743 12.8052 33.5493 12.9759C33.5829 13.0535 33.6139 13.131 33.6424 13.2086C33.8001 13.2086 33.9604 13.2319 34.0897 13.2422C34.4647 13.2707 34.8397 13.2991 35.2121 13.3353L35.2147 13.3327ZM42.2927 34.2746C42.5772 34.5151 42.7659 34.7401 42.7659 34.7401C42.7659 34.7401 44.2762 34.466 45.5123 34.5228C46.7485 34.5797 49.5181 34.5022 49.5181 34.5022C49.5181 34.5022 49.9991 34.0418 50.4879 33.7651C50.9767 33.4884 51.1758 33.4445 51.1758 33.4445C51.1758 33.4445 51.7344 32.7333 52.3136 32.3635C52.8929 31.9937 53.3843 31.8282 53.3843 31.8282L53.1696 35.2056L51.9981 35.1435C51.9981 35.1435 51.137 35.4099 51.0465 35.7228C50.956 36.0357 50.9844 36.3253 50.6974 36.377C50.4103 36.4314 50.1207 36.0202 49.8491 35.94C49.5776 35.8598 46.4226 36.0641 45.277 36.4107C44.1314 36.7546 43.7254 36.9512 43.2263 37.1192C42.7246 37.2848 42.0186 37.3778 42.0186 37.3778C42.0186 37.3778 42.4039 37.1037 42.6185 36.9899L42.8332 36.8762C42.8332 36.8762 42.3599 36.9072 42.1143 36.9822C42.0496 37.0029 41.9746 37.008 41.9022 37.0055C41.9979 36.7055 42.0755 36.39 42.1324 36.059C42.2358 35.4719 42.2875 34.872 42.2927 34.272V34.2746ZM39.8799 40.1604C40.7204 40.1889 41.9255 40.4475 42.9935 41.4871C44.8684 43.3103 43.0995 46.7937 42.5177 47.4272C41.9358 48.0608 41.3824 48.5108 41.3824 48.5108C41.3824 48.5108 42.6754 48.3789 44.0486 48.4048C45.4218 48.4306 47.5605 48.6686 47.5605 48.6686C47.5605 48.6686 49.6474 47.7169 51.1525 47.6134C52.6576 47.5074 53.661 47.6936 53.661 47.6936L50.8887 50.5719L49.0138 49.9383C49.0138 49.9383 48.1423 49.99 47.8786 50.334C47.6148 50.6779 47.0588 51.2572 46.5054 51.0193C45.9494 50.7814 44.8425 50.4374 44.2607 50.3598C43.6788 50.2797 42.3341 50.4116 41.0669 50.8874C39.7997 51.3632 38.4783 51.4408 38.7162 50.4659C38.9541 49.4883 39.2696 48.803 39.1377 48.0376C39.0058 47.2721 38.2921 46.4808 38.2921 46.4808C38.2921 46.4808 39.0058 46.4549 39.4274 46.8764C39.8489 47.298 40.0351 47.9315 40.0351 47.9315C40.0351 47.9315 40.1411 46.7704 39.0058 46.2687C38.1395 45.886 36.5206 46.2558 35.8017 46.4523L36.156 45.2808C36.2646 44.9265 36.412 44.5567 36.5594 44.218C36.8697 43.5016 37.2551 42.7827 37.7283 42.1621C37.9817 41.831 38.2714 41.5155 38.6024 41.2595C39.0601 40.9052 39.4894 40.5432 39.8799 40.1604ZM43.0633 16.5162C43.0633 16.5162 42.4711 15.5154 41.5867 15.1326C40.7049 14.7499 37.0559 14.0905 36.0939 13.9741C35.1319 13.8551 33.5389 13.7491 33.5389 13.7491C33.5389 13.7491 33.5777 14.1965 33.5001 14.6051C33.42 15.0137 33.2234 15.1844 33.2234 15.1844C33.2234 15.1844 33.4743 14.1448 33.0527 13.1957C32.6312 12.2466 31.9976 11.1139 31.9976 11.1139C31.9976 11.1139 32.1166 12.6164 31.8787 13.1698C31.6408 13.7232 31.2192 14.2896 31.2865 15.2387C31.3511 16.1878 31.6951 16.661 31.6951 16.661C31.6951 16.661 31.3925 16.6222 31.2477 16.1593C31.1029 15.699 31.0641 15.1714 31.0641 15.1714C31.0641 15.1714 29.5564 17.0618 29.5564 21.153C29.5564 25.2441 31.9847 28.7844 31.9847 28.7844C31.9847 28.7844 31.8709 27.8353 31.9175 27.3776C31.964 26.9173 32.1218 26.6897 32.1218 26.6897C32.1218 26.6897 32.0157 27.8508 32.3131 28.9654C32.6079 30.08 33.4406 31.5851 33.4406 31.5851C33.4406 31.5851 32.701 30.6283 32.476 30.1783C32.2511 29.7309 32.2252 29.5447 32.2252 29.5447C32.2252 29.5447 31.9744 31.3239 31.8968 33.129C31.8166 34.934 32.0416 38.0295 32.0416 38.0295C32.0416 38.0295 31.7907 37.5408 31.739 37.0805C31.6873 36.6201 31.6873 36.5943 31.6873 36.5943C31.6873 36.5943 30.1331 38.8209 29.2357 39.9148C28.341 41.0087 27.8962 43.1758 27.5781 44.999C27.26 46.8221 26.9186 47.4816 26.4945 47.7712C25.6308 48.3634 24.5291 49.0306 23.4844 48.0608C22.3749 47.0316 22.6387 45.5524 22.6387 45.5524C22.6387 45.5524 22.0853 46.0541 22.1112 46.9514C22.137 47.8488 22.3232 48.3505 22.3232 48.3505C22.3232 48.3505 20.3164 46.5014 21.6379 43.9413C22.9568 41.3811 26.7867 39.2941 27.3143 35.5702C27.8418 31.8463 25.729 29.3663 24.5938 28.8904C23.4585 28.4146 22.8766 28.4689 22.8766 28.4689C22.8766 28.4689 23.2723 28.7585 23.5904 29.1827C23.9085 29.6042 23.9085 29.8421 23.9085 29.8421C23.9085 29.8421 22.5094 28.9706 20.0527 29.868C17.5959 30.7653 17.1227 33.354 17.2002 34.3573C17.2804 35.3607 17.7537 36.3124 17.7537 36.3124C17.7537 36.3124 18.6252 34.2539 20.182 34.4892C21.7388 34.7271 21.475 36.1262 21.475 36.1262C21.475 36.1262 21.3172 35.5986 20.3656 35.4409C19.4139 35.2831 18.9924 35.6788 18.9924 35.6788C18.9924 35.6788 20.7354 35.8366 20.3914 37.3416C20.0475 38.8467 19.5458 39.0303 19.3622 40.1941C19.176 41.3552 19.3622 41.9371 19.3622 41.9371C19.3622 41.9371 18.9407 41.3552 18.3847 41.1975C17.8312 41.0397 17.4614 41.0138 17.4614 41.0138C17.4614 41.0138 18.7027 41.9629 18.2269 43.2585C17.7511 44.5516 17.6994 45.4231 17.9373 46.3204C18.1752 47.2178 18.5967 47.6678 18.5967 47.6678C18.5967 47.6678 18.1648 47.4402 17.7562 47.4143C17.3477 47.3885 17.1382 47.479 17.1382 47.479C17.1382 47.479 18.5734 48.322 19.5613 49.9435C20.4173 51.3477 22.243 51.7382 23.9705 51.5132C25.9928 51.252 27.3376 50.4736 28.2608 48.697C28.0746 47.4583 27.8832 45.7799 28.1548 44.7636C28.1548 44.7636 28.2815 47.9807 28.7444 49.3771C29.2047 50.7736 29.8641 53.1321 29.89 53.8303C29.9159 54.5285 29.5331 54.9371 29.1659 55.2139C28.7961 55.4906 28.7056 56.1216 28.7056 56.1216C28.7056 56.1216 28.6125 55.3845 28.8763 55.0949C29.14 54.8053 29.5228 54.6216 29.5745 54.2001C29.6262 53.7786 29.4555 53.2381 29.4555 53.2381C29.4555 53.2381 29.2176 54.107 28.809 54.4639C28.4004 54.8208 27.7022 55.069 27.5574 55.5061C27.4126 55.9405 27.3996 56.5069 27.6893 57.0732C27.9789 57.6396 28.3229 57.9292 28.3875 58.5886C28.4522 59.2481 28.2815 61.2937 28.2815 61.2937C28.2815 61.2937 28.2685 59.1033 28.1496 58.7205C28.0306 58.3378 27.9246 58.2059 27.9246 58.2059C27.9246 58.2059 28.0953 60.8825 28.0306 61.529C27.966 62.1755 27.3453 62.9125 27.5703 63.4401C27.7953 63.9676 28.584 63.9935 28.8349 64.5728C29.0857 65.152 29.0469 65.3512 29.0469 65.3512C29.0469 65.3512 29.0599 65.708 29.3909 65.708C29.7219 65.708 30.1693 66.8149 30.1538 67.2235C30.1408 67.6321 30.1408 67.6967 30.1408 67.6967C30.1408 67.6967 30.7874 68.3303 32.1166 68.1312C33.4484 67.9346 33.9216 67.4976 33.9216 67.4976C33.9216 67.4976 33.3036 66.1813 32.3416 65.377C31.3796 64.5728 31.077 64.3374 31.077 64.3374C31.077 64.3374 30.8132 63.6392 30.5236 63.2177C30.2339 62.7961 29.8512 62.3876 29.8512 62.3876C29.8512 62.3876 29.8383 58.9067 29.9831 57.8258C30.1279 56.7448 30.3658 55.956 30.3658 55.956C30.3658 55.956 30.2469 56.0879 29.9314 56.181C29.6159 56.2741 29.4452 56.2871 29.4452 56.2871C29.4452 56.2871 32.4347 55.0613 33.8053 53.3493C35.1759 51.6373 35.3983 50.0288 35.4138 49.0151C35.4267 48.0014 35.0569 45.3274 35.2302 43.8249C35.4009 42.3224 35.8638 41.4276 35.8638 41.4276C35.8638 41.4276 35.4422 43.2327 35.494 43.8792C35.5457 44.5257 35.6388 45.1308 35.6388 45.1308C35.6388 45.1308 36.531 42.1853 38.2714 40.838C40.0144 39.4907 41.2298 38.0916 41.597 35.9788C41.9669 33.866 41.5453 32.0713 41.5453 32.0713C41.5453 32.0713 40.3402 31.7196 39.642 31.8515C38.9438 31.9833 38.1266 32.3532 38.1266 32.3532C38.1266 32.3532 38.3903 32.0247 38.68 31.8515C38.9696 31.6808 39.1015 31.6265 39.1015 31.6265C39.1015 31.6265 38.5481 31.6006 38.0335 31.7325C37.5188 31.8644 37.1904 32.0739 37.1904 32.0739C37.1904 32.0739 37.6507 31.3756 38.7964 31.311C39.942 31.2463 41.4057 31.7842 42.1298 31.9161C42.8539 32.048 43.6969 31.9549 43.6969 31.9549C43.6969 31.9549 43.6168 32.2316 43.3814 32.4411C43.1435 32.6505 43.0245 32.7178 43.0245 32.7178C43.0245 32.7178 43.5909 32.6661 43.8805 32.5212C44.1702 32.3764 44.4857 32.0609 44.4857 32.0609C44.4857 32.0609 44.4469 32.3894 44.3279 32.5885C44.209 32.785 44.1572 32.8264 44.1572 32.8264C44.1572 32.8264 45.0805 32.2342 45.5408 31.5747C46.0011 30.9153 46.5416 29.7826 47.5708 29.268C48.5975 28.7534 49.6138 28.0422 49.9577 27.8431C50.2991 27.6465 50.4051 27.5017 50.4051 27.5017C50.4051 27.5017 50.8525 27.7267 51.0103 27.5509C51.168 27.3724 51.0568 26.7776 51.2016 26.5009C51.3465 26.2242 51.9438 25.9501 52.1999 25.9242C52.4559 25.8984 53.3869 26.0225 53.3869 26.0225L54.0178 22.3762C54.0178 22.3762 52.5955 22.8779 51.843 23.4571C51.093 24.0364 50.9353 24.2614 50.9353 24.2614C50.9353 24.2614 50.1983 24.8277 49.9086 25.2493C49.619 25.6708 49.4742 26.0406 48.7087 26.382C47.9458 26.7233 46.2571 27.3181 45.6494 27.6879C45.0443 28.0577 44.5167 28.9266 44.5167 28.9266C44.5167 28.9266 43.6995 28.6887 42.8694 28.6241C42.0393 28.5568 41.7108 28.5439 41.7108 28.5439C41.7108 28.5439 40.7359 27.3181 39.9989 26.8578C39.2618 26.3975 38.2585 26.1725 38.2585 26.1725C38.2585 26.1725 39.2722 26.2113 39.7868 26.4233C40.3014 26.6354 40.5911 26.8836 40.5911 26.8836C40.5911 26.8836 39.9187 25.7639 39.1687 25.1975C38.4188 24.6312 36.9292 23.8399 36.9292 23.8399C36.9292 23.8399 36.2051 23.077 35.7965 22.0995C35.3879 21.1245 35.3621 20.3746 35.3621 20.3746C35.3621 20.3746 34.7699 20.2039 34.294 19.5962C33.8208 18.991 33.8208 18.2126 33.9113 17.6334C34.0044 17.0541 34.2527 16.8834 34.2527 16.8834C34.2527 16.8834 33.976 17.7265 34.2656 18.6497C34.5552 19.5729 35.2793 20.1392 35.8457 20.0979C36.412 20.0591 37.0042 19.0841 38.1654 19.0169C39.3239 18.9522 39.7868 19.8212 40.9324 19.5832C42.0781 19.3453 42.4349 18.5281 42.4349 18.5281C42.4349 18.5281 41.566 18.4092 41.235 18.3161C40.9066 18.223 40.6299 18.1583 40.6299 18.1583C40.6299 18.1583 40.5238 18.2721 40.5238 18.4635C40.5238 18.6548 40.5445 18.8048 40.5445 18.8048C40.5445 18.8048 40.2885 18.2462 40.5781 17.6696C40.8678 17.0929 41.0643 17.1265 41.1548 16.9041C41.2479 16.6817 41.2609 16.4981 41.2609 16.4981C41.2609 16.4981 41.3126 16.7619 41.3126 16.9584C41.3126 17.1549 41.2066 17.3592 41.2066 17.3592C41.2066 17.3592 41.6462 17.0774 41.9927 17.0644C42.3392 17.0515 42.7918 16.7179 43.0659 16.5291L43.0633 16.5162Z" fill="white"/>
</svg>
