<svg width="67" height="85" viewBox="0 0 67 85" fill="none" xmlns="http://www.w3.org/2000/svg">
<path fill-rule="evenodd" clip-rule="evenodd" d="M9.03523 0L0.128119 6.35158C2.08818 10.1849 2.55959 13.5095 2.59681 16.9086C3.24189 61.5806 -14.0513 67.101 32.8289 84.5431C82.2149 67.1134 62.4282 61.5806 63.0733 16.9086C63.1229 13.5095 63.5943 10.1849 65.5544 6.35158L56.6473 0C53.8933 1.11649 11.7892 1.11649 9.03523 0Z" fill="white"/>
<path d="M54.2578 24.9673C52.8888 19.3254 48.34 15.2207 41.9597 14.5664C41.3685 14.5034 40.7588 14.4718 40.136 14.4718H21.1422C20.0573 19.9018 24.2108 24.9673 29.7481 24.9673H37.0931C40.2806 24.9673 41.9598 26.7779 41.9598 29.6106C41.9598 33.8178 38.9115 37.5545 34.5388 37.5545H23.719C19.536 37.5545 15.9344 40.5068 15.1137 44.6085L14.4203 48.0736L12.6518 56.9267L11.7715 61.3229H24.2168L25.0971 56.9267L26.8683 48.0736H34.4731C42.4065 48.0736 49.181 43.8612 52.4999 37.5545C53.848 34.995 54.6258 32.0912 54.6783 28.9799V28.9563C54.6836 28.8485 54.6836 28.7382 54.6836 28.6278C54.6836 27.3533 54.5364 26.1288 54.2578 24.9673Z" fill="url(#paint0_linear_56_1058)"/>
<path d="M26.868 50.1047L25.0969 58.9603H12.6523C13.6805 53.8115 18.2007 50.1047 23.4511 50.1047H26.868Z" fill="url(#paint1_linear_56_1058)"/>
<path d="M54.6837 30.6622V30.7603C54.6837 30.8378 54.6811 30.9126 54.6786 30.99V31.0132C54.5211 35.7915 50.5302 39.5888 45.7183 39.5888H34.5381C38.9111 39.5888 41.9597 35.8509 41.9597 31.643C41.9597 28.8112 40.2818 27.0016 37.0937 27.0016H54.2577C54.5366 28.1634 54.6837 29.3869 54.6837 30.6622Z" fill="url(#paint2_linear_56_1058)"/>
<path d="M31.6694 16.5051C37.3407 16.4964 41.9594 21.0515 41.9594 26.7228V31.644C41.9594 28.8112 40.2803 27.0007 37.0927 27.0007H31.5664L31.5665 16.5052C31.6007 16.5052 31.6351 16.5052 31.6694 16.5051Z" fill="url(#paint3_linear_56_1058)"/>
<defs>
<linearGradient id="paint0_linear_56_1058" x1="31.7033" y1="13.7356" x2="34.0034" y2="60.5731" gradientUnits="userSpaceOnUse">
<stop stop-color="#E60A14"/>
<stop offset="1" stop-color="#FF0000"/>
</linearGradient>
<linearGradient id="paint1_linear_56_1058" x1="19.7602" y1="50.2559" x2="19.7602" y2="58.4535" gradientUnits="userSpaceOnUse">
<stop offset="2.77045e-07" stop-color="#600234" stop-opacity="0.7"/>
<stop offset="1" stop-color="white" stop-opacity="0"/>
</linearGradient>
<linearGradient id="paint2_linear_56_1058" x1="44.6109" y1="27.2166" x2="44.6109" y2="38.8684" gradientUnits="userSpaceOnUse">
<stop stop-color="white" stop-opacity="0"/>
<stop offset="1" stop-color="#600234" stop-opacity="0.6"/>
</linearGradient>
<linearGradient id="paint3_linear_56_1058" x1="42.106" y1="24.0746" x2="32.5209" y2="24.0746" gradientUnits="userSpaceOnUse">
<stop offset="2.77045e-07" stop-color="#600234" stop-opacity="0.7"/>
<stop offset="1" stop-color="white" stop-opacity="0"/>
</linearGradient>
</defs>
</svg>
