<svg width="36" height="36" viewBox="0 0 36 36" fill="none" xmlns="http://www.w3.org/2000/svg">
<g clip-path="url(#clip0_51_346)">
<path d="M17.7079 35.4157C27.4876 35.4157 35.4157 27.4876 35.4157 17.7079C35.4157 7.92808 27.4876 0 17.7079 0C7.92808 0 0 7.92808 0 17.7079C0 27.4876 7.92808 35.4157 17.7079 35.4157Z" fill="white"/>
<path d="M17.7005 5.05908L17.5291 5.64163V22.5444L17.7005 22.7155L25.5465 18.0778L17.7005 5.05908Z" fill="#C0CBF6"/>
<path d="M17.6984 5.05908L9.85229 18.0778L17.6984 22.7155V14.5114V5.05908Z" fill="#E4E4E4"/>
<path d="M17.7004 24.1993L17.6038 24.3172V30.3383L17.7004 30.6203L25.5512 19.564L17.7004 24.1993Z" fill="#C0CBF6"/>
<path d="M17.6984 30.6203V24.1993L9.85229 19.564L17.6984 30.6203Z" fill="#E4E4E4"/>
<path d="M17.7039 22.7119L25.5497 18.0742L17.7039 14.5078V22.7119Z" fill="#8197EE"/>
<path d="M9.85229 18.0742L17.6984 22.7119V14.5078L9.85229 18.0742Z" fill="#C0CBF6"/>
</g>
<defs>
<clipPath id="clip0_51_346">
<rect width="35.4157" height="35.4157" fill="white"/>
</clipPath>
</defs>
</svg>
