<svg width="38" height="65" viewBox="0 0 38 65" fill="none" xmlns="http://www.w3.org/2000/svg">
<mask id="path-1-inside-1_51_4105" fill="white">
<path fill-rule="evenodd" clip-rule="evenodd" d="M25.7649 11.6353C25.7649 11.6353 25.4773 10.9863 24.9153 10.7857C24.3533 10.5852 24.6884 11.1393 25.0762 11.4823C25.4641 11.8227 25.8995 11.9704 25.7649 11.6353ZM19.7095 14.4401C19.7095 14.4401 19.261 14.5931 18.7386 14.4612C18.2162 14.3266 18.042 13.9124 18.042 13.9124C18.042 13.9124 18.0763 14.4348 18.4826 14.7145C18.8916 14.9968 19.5935 14.7013 19.7069 14.4401H19.7095ZM19.7307 10.2818C19.7307 10.2818 20.1475 10.1472 20.6357 10.1578C21.1238 10.1683 21.1977 10.2422 21.1977 10.2422C21.1977 10.2422 21.0737 10.5641 20.6568 10.6274C20.2399 10.6908 19.7307 10.2844 19.7307 10.2844V10.2818ZM14.7413 7.952C13.7439 8.36361 12.8917 8.99156 11.8336 9.22375C10.7756 9.45594 9.75979 9.0628 9.75979 9.0628C9.75979 9.0628 9.43789 10.0047 9.89435 10.6512C10.3535 11.2976 10.7281 11.4058 10.7281 11.4058C10.7281 11.4058 9.48802 12.105 9.11072 13.506C8.73341 14.9071 8.89436 15.3926 8.32973 16.0126C7.76509 16.6326 7.17143 16.659 7.17143 16.659C7.17143 16.659 7.57512 17.63 8.32973 17.7646C9.08434 17.8991 9.30069 17.7646 9.30069 17.7646C9.30069 17.7646 9.16613 19.5957 8.38513 20.1366C7.60414 20.6748 7.06589 20.5403 7.06589 20.5403C7.06589 20.5403 7.20045 21.4294 8.14239 21.6986C9.08433 21.9677 9.65161 21.8595 9.65161 21.8595C9.65161 21.8595 9.01837 22.9914 9.44845 24.469C9.87852 25.9465 11.1556 26.8621 11.1556 26.8621C11.1556 26.8621 10.8073 26.1365 10.7123 25.2632C10.6173 24.3898 10.7519 24.0547 10.7519 24.0547C10.7519 24.0547 10.9656 25.3977 11.773 26.3265C12.5803 27.2552 13.5619 27.9122 13.2795 28.9069C12.9972 29.9016 11.9075 29.337 11.9075 29.337C11.9075 29.337 12.6014 30.4188 13.2795 30.4927C13.9576 30.5665 14.2927 30.6114 14.6859 30.4927C14.6753 29.957 14.6727 29.4188 14.6964 28.8832C14.7492 27.6589 14.8653 26.2288 15.0368 25.0125L15.0526 24.8938L14.8785 24.622C14.3429 23.8357 13.9181 23.097 13.5355 22.2131C12.765 20.4374 12.2558 18.4875 12.2558 16.5429C12.2558 14.9255 12.4801 13.2448 13.0632 11.725C13.3297 11.0311 13.4721 10.4981 14.0658 10.0338C14.0975 9.74881 14.1687 9.2818 14.2769 9.00476C14.4009 8.68286 14.5698 8.39526 14.7043 8.08128C14.7202 8.04698 14.7333 8.00477 14.7439 7.95728L14.7413 7.952ZM18.4431 8.54302C18.0077 8.21057 18.2922 3.73937 19.3402 2.78378e-05C19.2478 -0.0237186 16.6014 7.67232 16.5064 7.66176C16.5882 7.83327 16.6674 8.00477 16.7439 8.17891C16.7782 8.25807 16.8098 8.33722 16.8389 8.41637C16.9998 8.41637 17.1634 8.44012 17.2953 8.45068C17.6779 8.4797 18.0605 8.50872 18.4404 8.54566L18.4431 8.54302ZM25.6646 29.9095C25.9549 30.1549 26.1475 30.3845 26.1475 30.3845C26.1475 30.3845 27.6884 30.1048 28.9496 30.1628C30.2108 30.2209 33.0366 30.1417 33.0366 30.1417C33.0366 30.1417 33.5273 29.6721 34.026 29.3898C34.5247 29.1074 34.7279 29.0626 34.7279 29.0626C34.7279 29.0626 35.2978 28.337 35.8888 27.9597C36.4798 27.5824 36.9811 27.4135 36.9811 27.4135L36.7621 30.8594L35.5669 30.7961C35.5669 30.7961 34.6883 31.0679 34.5959 31.3871C34.5036 31.7064 34.5326 32.0019 34.2397 32.0546C33.9469 32.1101 33.6514 31.6905 33.3743 31.6087C33.0973 31.5269 29.8783 31.7354 28.7095 32.0889C27.5406 32.4399 27.1264 32.6404 26.6171 32.8119C26.1053 32.9808 25.385 33.0757 25.385 33.0757C25.385 33.0757 25.7781 32.7961 25.9971 32.68L26.2161 32.5639C26.2161 32.5639 25.7332 32.5955 25.4826 32.6721C25.4166 32.6932 25.3401 32.6984 25.2662 32.6958C25.3638 32.3897 25.443 32.0678 25.501 31.7301C25.6066 31.1312 25.6594 30.519 25.6646 29.9069V29.9095ZM23.2029 35.9148C24.0604 35.9438 25.29 36.2076 26.3797 37.2683C28.2926 39.1285 26.4878 42.6825 25.8942 43.3289C25.3005 43.9754 24.7359 44.4345 24.7359 44.4345C24.7359 44.4345 26.0551 44.2999 27.4562 44.3263C28.8572 44.3527 31.0392 44.5954 31.0392 44.5954C31.0392 44.5954 33.1685 43.6245 34.7041 43.5189C36.2397 43.4107 37.2635 43.6007 37.2635 43.6007L34.435 46.5373L32.5221 45.8909C32.5221 45.8909 31.6329 45.9437 31.3638 46.2946C31.0947 46.6455 30.5274 47.2366 29.9627 46.9938C29.3955 46.7511 28.2662 46.4001 27.6725 46.321C27.0789 46.2392 25.7068 46.3738 24.414 46.8592C23.1211 47.3447 21.7729 47.4239 22.0156 46.4292C22.2583 45.4318 22.5802 44.7326 22.4457 43.9516C22.3111 43.1706 21.5829 42.3632 21.5829 42.3632C21.5829 42.3632 22.3111 42.3369 22.7412 42.7669C23.1713 43.197 23.3612 43.8434 23.3612 43.8434C23.3612 43.8434 23.4694 42.6588 22.3111 42.1469C21.4272 41.7564 19.7755 42.1337 19.042 42.3342L19.4035 41.139C19.5143 40.7775 19.6647 40.4002 19.8151 40.0546C20.1317 39.3237 20.5248 38.5902 21.0077 37.957C21.2663 37.6192 21.5618 37.2973 21.8995 37.0361C22.3665 36.6747 22.8045 36.3053 23.2029 35.9148ZM26.4509 11.791C26.4509 11.791 25.8467 10.7699 24.9443 10.3794C24.0446 9.98892 20.3217 9.3161 19.3402 9.19737C18.3586 9.076 16.7333 8.96782 16.7333 8.96782C16.7333 8.96782 16.7729 9.42428 16.6938 9.84116C16.612 10.258 16.4114 10.4322 16.4114 10.4322C16.4114 10.4322 16.6674 9.37151 16.2373 8.40318C15.8072 7.43485 15.1608 6.2792 15.1608 6.2792C15.1608 6.2792 15.2822 7.81216 15.0394 8.3768C14.7967 8.94144 14.3666 9.51927 14.4352 10.4876C14.5012 11.4559 14.8521 11.9388 14.8521 11.9388C14.8521 11.9388 14.5434 11.8992 14.3956 11.4269C14.2479 10.9572 14.2083 10.419 14.2083 10.419C14.2083 10.419 12.67 12.3477 12.67 16.5218C12.67 20.6959 15.1476 24.308 15.1476 24.308C15.1476 24.308 15.0315 23.3397 15.079 22.8727C15.1265 22.403 15.2874 22.1708 15.2874 22.1708C15.2874 22.1708 15.1793 23.3555 15.4827 24.4927C15.7835 25.6299 16.6331 27.1655 16.6331 27.1655C16.6331 27.1655 15.8785 26.1893 15.6489 25.7302C15.4194 25.2737 15.393 25.0837 15.393 25.0837C15.393 25.0837 15.137 26.899 15.0579 28.7407C14.9761 30.5824 15.2056 33.7406 15.2056 33.7406C15.2056 33.7406 14.9497 33.242 14.8969 32.7723C14.8442 32.3027 14.8442 32.2763 14.8442 32.2763C14.8442 32.2763 13.2584 34.548 12.3429 35.6641C11.43 36.7802 10.9761 38.9913 10.6516 40.8514C10.3271 42.7115 9.97878 43.3844 9.54607 43.6799C8.66481 44.2841 7.54082 44.9648 6.47486 43.9754C5.34295 42.9253 5.61208 41.416 5.61208 41.416C5.61208 41.416 5.04744 41.9279 5.07382 42.8435C5.10021 43.759 5.29018 44.2709 5.29018 44.2709C5.29018 44.2709 3.24271 42.3844 4.59098 39.7723C5.93661 37.1601 9.84422 35.0309 10.3825 31.2314C10.9207 27.432 8.76508 24.9017 7.60678 24.4162C6.44848 23.9307 5.85482 23.9861 5.85482 23.9861C5.85482 23.9861 6.25851 24.2816 6.58304 24.7144C6.90758 25.1444 6.90758 25.3872 6.90758 25.3872C6.90758 25.3872 5.48015 24.498 2.97358 25.4136C0.467014 26.3291 -0.015831 28.9702 0.0633239 29.994C0.145117 31.0177 0.627962 31.9887 0.627962 31.9887C0.627962 31.9887 1.51713 29.8884 3.10551 30.1285C4.69388 30.3713 4.42475 31.7987 4.42475 31.7987C4.42475 31.7987 4.26381 31.2605 3.29284 31.0995C2.32187 30.9386 1.8918 31.3422 1.8918 31.3422C1.8918 31.3422 3.67015 31.5032 3.31923 33.0388C2.96831 34.5744 2.45644 34.7617 2.2691 35.9491C2.07913 37.1338 2.2691 37.7274 2.2691 37.7274C2.2691 37.7274 1.83903 37.1338 1.27175 36.9728C0.707116 36.8119 0.329812 36.7855 0.329812 36.7855C0.329812 36.7855 1.59629 37.7538 1.11081 39.0757C0.625323 40.3949 0.572553 41.2841 0.815295 42.1997C1.05804 43.1152 1.48811 43.5743 1.48811 43.5743C1.48811 43.5743 1.04748 43.3421 0.6306 43.3158C0.213718 43.2894 0 43.3817 0 43.3817C0 43.3817 1.46436 44.2419 2.47227 45.8962C3.34561 47.3289 5.20839 47.7273 6.9709 47.4978C9.0342 47.2313 10.4062 46.4371 11.3482 44.6244C11.1582 43.3606 10.9629 41.6482 11.24 40.6113C11.24 40.6113 11.3693 43.8936 11.8416 45.3184C12.3112 46.7432 12.984 49.1495 13.0104 49.8619C13.0368 50.5742 12.6463 50.9911 12.2716 51.2735C11.8943 51.5558 11.802 52.1996 11.802 52.1996C11.802 52.1996 11.707 51.4476 11.9761 51.1521C12.2452 50.8566 12.6357 50.6692 12.6885 50.2392C12.7413 49.8091 12.5671 49.2576 12.5671 49.2576C12.5671 49.2576 12.3244 50.1442 11.9075 50.5083C11.4906 50.8724 10.7782 51.1257 10.6305 51.5716C10.4827 52.0149 10.4695 52.5927 10.7651 53.1705C11.0606 53.7484 11.4115 54.0439 11.4774 54.7167C11.5434 55.3895 11.3693 57.4766 11.3693 57.4766C11.3693 57.4766 11.3561 55.2417 11.2347 54.8512C11.1133 54.4608 11.0052 54.3262 11.0052 54.3262C11.0052 54.3262 11.1793 57.057 11.1133 57.7166C11.0474 58.3763 10.4141 59.1283 10.6437 59.6665C10.8732 60.2048 11.678 60.2311 11.9339 60.8222C12.1898 61.4132 12.1503 61.6163 12.1503 61.6163C12.1503 61.6163 12.1635 61.9805 12.5012 61.9805C12.8389 61.9805 13.2954 63.1097 13.2795 63.5266C13.2663 63.9435 13.2663 64.0095 13.2663 64.0095C13.2663 64.0095 13.926 64.6559 15.2822 64.4527C16.641 64.2522 17.1238 63.8063 17.1238 63.8063C17.1238 63.8063 16.4932 62.4633 15.5117 61.6427C14.5302 60.8222 14.2215 60.5821 14.2215 60.5821C14.2215 60.5821 13.9524 59.8697 13.6568 59.4396C13.3613 59.0095 12.9708 58.5926 12.9708 58.5926C12.9708 58.5926 12.9576 55.0412 13.1054 53.9383C13.2532 52.8354 13.4959 52.0307 13.4959 52.0307C13.4959 52.0307 13.3745 52.1653 13.0526 52.2602C12.7307 52.3552 12.5566 52.3684 12.5566 52.3684C12.5566 52.3684 15.6067 51.1178 17.0051 49.3711C18.4035 47.6244 18.6304 45.9833 18.6462 44.949C18.6594 43.9147 18.2821 41.1865 18.4589 39.6535C18.633 38.1206 19.1053 37.2076 19.1053 37.2076C19.1053 37.2076 18.6753 39.0493 18.728 39.7089C18.7808 40.3685 18.8758 40.986 18.8758 40.986C18.8758 40.986 19.7861 37.9807 21.5618 36.6061C23.3401 35.2314 24.5802 33.804 24.9549 31.6483C25.3322 29.4927 24.9021 27.6616 24.9021 27.6616C24.9021 27.6616 23.6726 27.3027 22.9602 27.4373C22.2478 27.5718 21.414 27.9492 21.414 27.9492C21.414 27.9492 21.6831 27.6141 21.9787 27.4373C22.2742 27.2631 22.4087 27.2077 22.4087 27.2077C22.4087 27.2077 21.8441 27.1813 21.319 27.3159C20.794 27.4505 20.4589 27.6642 20.4589 27.6642C20.4589 27.6642 20.9285 26.9518 22.0974 26.8858C23.2662 26.8199 24.7596 27.3687 25.4984 27.5032C26.2372 27.6378 27.0973 27.5428 27.0973 27.5428C27.0973 27.5428 27.0155 27.8251 26.7754 28.0389C26.5327 28.2526 26.4113 28.3212 26.4113 28.3212C26.4113 28.3212 26.9892 28.2684 27.2847 28.1207C27.5802 27.9729 27.9021 27.651 27.9021 27.651C27.9021 27.651 27.8625 27.9861 27.7411 28.1893C27.6198 28.3898 27.567 28.432 27.567 28.432C27.567 28.432 28.5089 27.8278 28.9786 27.155C29.4482 26.4821 29.9997 25.3265 31.0498 24.8014C32.0973 24.2764 33.1342 23.5508 33.4851 23.3476C33.8334 23.1471 33.9416 22.9993 33.9416 22.9993C33.9416 22.9993 34.398 23.2289 34.559 23.0495C34.7199 22.8674 34.6065 22.2606 34.7542 21.9782C34.902 21.6959 35.5115 21.4162 35.7727 21.3898C36.0339 21.3635 36.9838 21.4901 36.9838 21.4901L37.6276 17.7698C37.6276 17.7698 36.1764 18.2817 35.4086 18.8727C34.6434 19.4637 34.4825 19.6933 34.4825 19.6933C34.4825 19.6933 33.7305 20.2711 33.435 20.7012C33.1395 21.1313 32.9917 21.5086 32.2107 21.8569C31.4324 22.2051 29.7094 22.812 29.0894 23.1893C28.472 23.5666 27.9337 24.4531 27.9337 24.4531C27.9337 24.4531 27.1 24.2104 26.253 24.1444C25.4061 24.0758 25.071 24.0626 25.071 24.0626C25.071 24.0626 24.0763 22.812 23.3243 22.3423C22.5723 21.8727 21.5486 21.6431 21.5486 21.6431C21.5486 21.6431 22.5829 21.6827 23.1079 21.8991C23.633 22.1154 23.9285 22.3687 23.9285 22.3687C23.9285 22.3687 23.2425 21.2263 22.4773 20.6484C21.7122 20.0706 20.1924 19.2632 20.1924 19.2632C20.1924 19.2632 19.4536 18.4849 19.0367 17.4875C18.6199 16.4928 18.5935 15.7276 18.5935 15.7276C18.5935 15.7276 17.9893 15.5535 17.5038 14.9335C17.0209 14.316 17.0209 13.5219 17.1133 12.9308C17.2083 12.3398 17.4616 12.1657 17.4616 12.1657C17.4616 12.1657 17.1792 13.0258 17.4747 13.9678C17.7703 14.9097 18.509 15.4875 19.0869 15.4453C19.6647 15.4057 20.2689 14.411 21.4536 14.3424C22.6356 14.2765 23.1079 15.163 24.2768 14.9203C25.4456 14.6775 25.8097 13.8438 25.8097 13.8438C25.8097 13.8438 24.9232 13.7224 24.5855 13.6274C24.2504 13.5324 23.9681 13.4665 23.9681 13.4665C23.9681 13.4665 23.8599 13.5825 23.8599 13.7778C23.8599 13.973 23.881 14.1261 23.881 14.1261C23.881 14.1261 23.6198 13.5562 23.9153 12.9678C24.2108 12.3794 24.4113 12.4137 24.5037 12.1868C24.5987 11.9599 24.6119 11.7725 24.6119 11.7725C24.6119 11.7725 24.6646 12.0417 24.6646 12.2422C24.6646 12.4427 24.5565 12.6512 24.5565 12.6512C24.5565 12.6512 25.005 12.3636 25.3586 12.3504C25.7121 12.3372 26.1739 11.9968 26.4535 11.8042L26.4509 11.791Z"/>
</mask>
<path fill-rule="evenodd" clip-rule="evenodd" d="M25.7649 11.6353C25.7649 11.6353 25.4773 10.9863 24.9153 10.7857C24.3533 10.5852 24.6884 11.1393 25.0762 11.4823C25.4641 11.8227 25.8995 11.9704 25.7649 11.6353ZM19.7095 14.4401C19.7095 14.4401 19.261 14.5931 18.7386 14.4612C18.2162 14.3266 18.042 13.9124 18.042 13.9124C18.042 13.9124 18.0763 14.4348 18.4826 14.7145C18.8916 14.9968 19.5935 14.7013 19.7069 14.4401H19.7095ZM19.7307 10.2818C19.7307 10.2818 20.1475 10.1472 20.6357 10.1578C21.1238 10.1683 21.1977 10.2422 21.1977 10.2422C21.1977 10.2422 21.0737 10.5641 20.6568 10.6274C20.2399 10.6908 19.7307 10.2844 19.7307 10.2844V10.2818ZM14.7413 7.952C13.7439 8.36361 12.8917 8.99156 11.8336 9.22375C10.7756 9.45594 9.75979 9.0628 9.75979 9.0628C9.75979 9.0628 9.43789 10.0047 9.89435 10.6512C10.3535 11.2976 10.7281 11.4058 10.7281 11.4058C10.7281 11.4058 9.48802 12.105 9.11072 13.506C8.73341 14.9071 8.89436 15.3926 8.32973 16.0126C7.76509 16.6326 7.17143 16.659 7.17143 16.659C7.17143 16.659 7.57512 17.63 8.32973 17.7646C9.08434 17.8991 9.30069 17.7646 9.30069 17.7646C9.30069 17.7646 9.16613 19.5957 8.38513 20.1366C7.60414 20.6748 7.06589 20.5403 7.06589 20.5403C7.06589 20.5403 7.20045 21.4294 8.14239 21.6986C9.08433 21.9677 9.65161 21.8595 9.65161 21.8595C9.65161 21.8595 9.01837 22.9914 9.44845 24.469C9.87852 25.9465 11.1556 26.8621 11.1556 26.8621C11.1556 26.8621 10.8073 26.1365 10.7123 25.2632C10.6173 24.3898 10.7519 24.0547 10.7519 24.0547C10.7519 24.0547 10.9656 25.3977 11.773 26.3265C12.5803 27.2552 13.5619 27.9122 13.2795 28.9069C12.9972 29.9016 11.9075 29.337 11.9075 29.337C11.9075 29.337 12.6014 30.4188 13.2795 30.4927C13.9576 30.5665 14.2927 30.6114 14.6859 30.4927C14.6753 29.957 14.6727 29.4188 14.6964 28.8832C14.7492 27.6589 14.8653 26.2288 15.0368 25.0125L15.0526 24.8938L14.8785 24.622C14.3429 23.8357 13.9181 23.097 13.5355 22.2131C12.765 20.4374 12.2558 18.4875 12.2558 16.5429C12.2558 14.9255 12.4801 13.2448 13.0632 11.725C13.3297 11.0311 13.4721 10.4981 14.0658 10.0338C14.0975 9.74881 14.1687 9.2818 14.2769 9.00476C14.4009 8.68286 14.5698 8.39526 14.7043 8.08128C14.7202 8.04698 14.7333 8.00477 14.7439 7.95728L14.7413 7.952ZM18.4431 8.54302C18.0077 8.21057 18.2922 3.73937 19.3402 2.78378e-05C19.2478 -0.0237186 16.6014 7.67232 16.5064 7.66176C16.5882 7.83327 16.6674 8.00477 16.7439 8.17891C16.7782 8.25807 16.8098 8.33722 16.8389 8.41637C16.9998 8.41637 17.1634 8.44012 17.2953 8.45068C17.6779 8.4797 18.0605 8.50872 18.4404 8.54566L18.4431 8.54302ZM25.6646 29.9095C25.9549 30.1549 26.1475 30.3845 26.1475 30.3845C26.1475 30.3845 27.6884 30.1048 28.9496 30.1628C30.2108 30.2209 33.0366 30.1417 33.0366 30.1417C33.0366 30.1417 33.5273 29.6721 34.026 29.3898C34.5247 29.1074 34.7279 29.0626 34.7279 29.0626C34.7279 29.0626 35.2978 28.337 35.8888 27.9597C36.4798 27.5824 36.9811 27.4135 36.9811 27.4135L36.7621 30.8594L35.5669 30.7961C35.5669 30.7961 34.6883 31.0679 34.5959 31.3871C34.5036 31.7064 34.5326 32.0019 34.2397 32.0546C33.9469 32.1101 33.6514 31.6905 33.3743 31.6087C33.0973 31.5269 29.8783 31.7354 28.7095 32.0889C27.5406 32.4399 27.1264 32.6404 26.6171 32.8119C26.1053 32.9808 25.385 33.0757 25.385 33.0757C25.385 33.0757 25.7781 32.7961 25.9971 32.68L26.2161 32.5639C26.2161 32.5639 25.7332 32.5955 25.4826 32.6721C25.4166 32.6932 25.3401 32.6984 25.2662 32.6958C25.3638 32.3897 25.443 32.0678 25.501 31.7301C25.6066 31.1312 25.6594 30.519 25.6646 29.9069V29.9095ZM23.2029 35.9148C24.0604 35.9438 25.29 36.2076 26.3797 37.2683C28.2926 39.1285 26.4878 42.6825 25.8942 43.3289C25.3005 43.9754 24.7359 44.4345 24.7359 44.4345C24.7359 44.4345 26.0551 44.2999 27.4562 44.3263C28.8572 44.3527 31.0392 44.5954 31.0392 44.5954C31.0392 44.5954 33.1685 43.6245 34.7041 43.5189C36.2397 43.4107 37.2635 43.6007 37.2635 43.6007L34.435 46.5373L32.5221 45.8909C32.5221 45.8909 31.6329 45.9437 31.3638 46.2946C31.0947 46.6455 30.5274 47.2366 29.9627 46.9938C29.3955 46.7511 28.2662 46.4001 27.6725 46.321C27.0789 46.2392 25.7068 46.3738 24.414 46.8592C23.1211 47.3447 21.7729 47.4239 22.0156 46.4292C22.2583 45.4318 22.5802 44.7326 22.4457 43.9516C22.3111 43.1706 21.5829 42.3632 21.5829 42.3632C21.5829 42.3632 22.3111 42.3369 22.7412 42.7669C23.1713 43.197 23.3612 43.8434 23.3612 43.8434C23.3612 43.8434 23.4694 42.6588 22.3111 42.1469C21.4272 41.7564 19.7755 42.1337 19.042 42.3342L19.4035 41.139C19.5143 40.7775 19.6647 40.4002 19.8151 40.0546C20.1317 39.3237 20.5248 38.5902 21.0077 37.957C21.2663 37.6192 21.5618 37.2973 21.8995 37.0361C22.3665 36.6747 22.8045 36.3053 23.2029 35.9148ZM26.4509 11.791C26.4509 11.791 25.8467 10.7699 24.9443 10.3794C24.0446 9.98892 20.3217 9.3161 19.3402 9.19737C18.3586 9.076 16.7333 8.96782 16.7333 8.96782C16.7333 8.96782 16.7729 9.42428 16.6938 9.84116C16.612 10.258 16.4114 10.4322 16.4114 10.4322C16.4114 10.4322 16.6674 9.37151 16.2373 8.40318C15.8072 7.43485 15.1608 6.2792 15.1608 6.2792C15.1608 6.2792 15.2822 7.81216 15.0394 8.3768C14.7967 8.94144 14.3666 9.51927 14.4352 10.4876C14.5012 11.4559 14.8521 11.9388 14.8521 11.9388C14.8521 11.9388 14.5434 11.8992 14.3956 11.4269C14.2479 10.9572 14.2083 10.419 14.2083 10.419C14.2083 10.419 12.67 12.3477 12.67 16.5218C12.67 20.6959 15.1476 24.308 15.1476 24.308C15.1476 24.308 15.0315 23.3397 15.079 22.8727C15.1265 22.403 15.2874 22.1708 15.2874 22.1708C15.2874 22.1708 15.1793 23.3555 15.4827 24.4927C15.7835 25.6299 16.6331 27.1655 16.6331 27.1655C16.6331 27.1655 15.8785 26.1893 15.6489 25.7302C15.4194 25.2737 15.393 25.0837 15.393 25.0837C15.393 25.0837 15.137 26.899 15.0579 28.7407C14.9761 30.5824 15.2056 33.7406 15.2056 33.7406C15.2056 33.7406 14.9497 33.242 14.8969 32.7723C14.8442 32.3027 14.8442 32.2763 14.8442 32.2763C14.8442 32.2763 13.2584 34.548 12.3429 35.6641C11.43 36.7802 10.9761 38.9913 10.6516 40.8514C10.3271 42.7115 9.97878 43.3844 9.54607 43.6799C8.66481 44.2841 7.54082 44.9648 6.47486 43.9754C5.34295 42.9253 5.61208 41.416 5.61208 41.416C5.61208 41.416 5.04744 41.9279 5.07382 42.8435C5.10021 43.759 5.29018 44.2709 5.29018 44.2709C5.29018 44.2709 3.24271 42.3844 4.59098 39.7723C5.93661 37.1601 9.84422 35.0309 10.3825 31.2314C10.9207 27.432 8.76508 24.9017 7.60678 24.4162C6.44848 23.9307 5.85482 23.9861 5.85482 23.9861C5.85482 23.9861 6.25851 24.2816 6.58304 24.7144C6.90758 25.1444 6.90758 25.3872 6.90758 25.3872C6.90758 25.3872 5.48015 24.498 2.97358 25.4136C0.467014 26.3291 -0.015831 28.9702 0.0633239 29.994C0.145117 31.0177 0.627962 31.9887 0.627962 31.9887C0.627962 31.9887 1.51713 29.8884 3.10551 30.1285C4.69388 30.3713 4.42475 31.7987 4.42475 31.7987C4.42475 31.7987 4.26381 31.2605 3.29284 31.0995C2.32187 30.9386 1.8918 31.3422 1.8918 31.3422C1.8918 31.3422 3.67015 31.5032 3.31923 33.0388C2.96831 34.5744 2.45644 34.7617 2.2691 35.9491C2.07913 37.1338 2.2691 37.7274 2.2691 37.7274C2.2691 37.7274 1.83903 37.1338 1.27175 36.9728C0.707116 36.8119 0.329812 36.7855 0.329812 36.7855C0.329812 36.7855 1.59629 37.7538 1.11081 39.0757C0.625323 40.3949 0.572553 41.2841 0.815295 42.1997C1.05804 43.1152 1.48811 43.5743 1.48811 43.5743C1.48811 43.5743 1.04748 43.3421 0.6306 43.3158C0.213718 43.2894 0 43.3817 0 43.3817C0 43.3817 1.46436 44.2419 2.47227 45.8962C3.34561 47.3289 5.20839 47.7273 6.9709 47.4978C9.0342 47.2313 10.4062 46.4371 11.3482 44.6244C11.1582 43.3606 10.9629 41.6482 11.24 40.6113C11.24 40.6113 11.3693 43.8936 11.8416 45.3184C12.3112 46.7432 12.984 49.1495 13.0104 49.8619C13.0368 50.5742 12.6463 50.9911 12.2716 51.2735C11.8943 51.5558 11.802 52.1996 11.802 52.1996C11.802 52.1996 11.707 51.4476 11.9761 51.1521C12.2452 50.8566 12.6357 50.6692 12.6885 50.2392C12.7413 49.8091 12.5671 49.2576 12.5671 49.2576C12.5671 49.2576 12.3244 50.1442 11.9075 50.5083C11.4906 50.8724 10.7782 51.1257 10.6305 51.5716C10.4827 52.0149 10.4695 52.5927 10.7651 53.1705C11.0606 53.7484 11.4115 54.0439 11.4774 54.7167C11.5434 55.3895 11.3693 57.4766 11.3693 57.4766C11.3693 57.4766 11.3561 55.2417 11.2347 54.8512C11.1133 54.4608 11.0052 54.3262 11.0052 54.3262C11.0052 54.3262 11.1793 57.057 11.1133 57.7166C11.0474 58.3763 10.4141 59.1283 10.6437 59.6665C10.8732 60.2048 11.678 60.2311 11.9339 60.8222C12.1898 61.4132 12.1503 61.6163 12.1503 61.6163C12.1503 61.6163 12.1635 61.9805 12.5012 61.9805C12.8389 61.9805 13.2954 63.1097 13.2795 63.5266C13.2663 63.9435 13.2663 64.0095 13.2663 64.0095C13.2663 64.0095 13.926 64.6559 15.2822 64.4527C16.641 64.2522 17.1238 63.8063 17.1238 63.8063C17.1238 63.8063 16.4932 62.4633 15.5117 61.6427C14.5302 60.8222 14.2215 60.5821 14.2215 60.5821C14.2215 60.5821 13.9524 59.8697 13.6568 59.4396C13.3613 59.0095 12.9708 58.5926 12.9708 58.5926C12.9708 58.5926 12.9576 55.0412 13.1054 53.9383C13.2532 52.8354 13.4959 52.0307 13.4959 52.0307C13.4959 52.0307 13.3745 52.1653 13.0526 52.2602C12.7307 52.3552 12.5566 52.3684 12.5566 52.3684C12.5566 52.3684 15.6067 51.1178 17.0051 49.3711C18.4035 47.6244 18.6304 45.9833 18.6462 44.949C18.6594 43.9147 18.2821 41.1865 18.4589 39.6535C18.633 38.1206 19.1053 37.2076 19.1053 37.2076C19.1053 37.2076 18.6753 39.0493 18.728 39.7089C18.7808 40.3685 18.8758 40.986 18.8758 40.986C18.8758 40.986 19.7861 37.9807 21.5618 36.6061C23.3401 35.2314 24.5802 33.804 24.9549 31.6483C25.3322 29.4927 24.9021 27.6616 24.9021 27.6616C24.9021 27.6616 23.6726 27.3027 22.9602 27.4373C22.2478 27.5718 21.414 27.9492 21.414 27.9492C21.414 27.9492 21.6831 27.6141 21.9787 27.4373C22.2742 27.2631 22.4087 27.2077 22.4087 27.2077C22.4087 27.2077 21.8441 27.1813 21.319 27.3159C20.794 27.4505 20.4589 27.6642 20.4589 27.6642C20.4589 27.6642 20.9285 26.9518 22.0974 26.8858C23.2662 26.8199 24.7596 27.3687 25.4984 27.5032C26.2372 27.6378 27.0973 27.5428 27.0973 27.5428C27.0973 27.5428 27.0155 27.8251 26.7754 28.0389C26.5327 28.2526 26.4113 28.3212 26.4113 28.3212C26.4113 28.3212 26.9892 28.2684 27.2847 28.1207C27.5802 27.9729 27.9021 27.651 27.9021 27.651C27.9021 27.651 27.8625 27.9861 27.7411 28.1893C27.6198 28.3898 27.567 28.432 27.567 28.432C27.567 28.432 28.5089 27.8278 28.9786 27.155C29.4482 26.4821 29.9997 25.3265 31.0498 24.8014C32.0973 24.2764 33.1342 23.5508 33.4851 23.3476C33.8334 23.1471 33.9416 22.9993 33.9416 22.9993C33.9416 22.9993 34.398 23.2289 34.559 23.0495C34.7199 22.8674 34.6065 22.2606 34.7542 21.9782C34.902 21.6959 35.5115 21.4162 35.7727 21.3898C36.0339 21.3635 36.9838 21.4901 36.9838 21.4901L37.6276 17.7698C37.6276 17.7698 36.1764 18.2817 35.4086 18.8727C34.6434 19.4637 34.4825 19.6933 34.4825 19.6933C34.4825 19.6933 33.7305 20.2711 33.435 20.7012C33.1395 21.1313 32.9917 21.5086 32.2107 21.8569C31.4324 22.2051 29.7094 22.812 29.0894 23.1893C28.472 23.5666 27.9337 24.4531 27.9337 24.4531C27.9337 24.4531 27.1 24.2104 26.253 24.1444C25.4061 24.0758 25.071 24.0626 25.071 24.0626C25.071 24.0626 24.0763 22.812 23.3243 22.3423C22.5723 21.8727 21.5486 21.6431 21.5486 21.6431C21.5486 21.6431 22.5829 21.6827 23.1079 21.8991C23.633 22.1154 23.9285 22.3687 23.9285 22.3687C23.9285 22.3687 23.2425 21.2263 22.4773 20.6484C21.7122 20.0706 20.1924 19.2632 20.1924 19.2632C20.1924 19.2632 19.4536 18.4849 19.0367 17.4875C18.6199 16.4928 18.5935 15.7276 18.5935 15.7276C18.5935 15.7276 17.9893 15.5535 17.5038 14.9335C17.0209 14.316 17.0209 13.5219 17.1133 12.9308C17.2083 12.3398 17.4616 12.1657 17.4616 12.1657C17.4616 12.1657 17.1792 13.0258 17.4747 13.9678C17.7703 14.9097 18.509 15.4875 19.0869 15.4453C19.6647 15.4057 20.2689 14.411 21.4536 14.3424C22.6356 14.2765 23.1079 15.163 24.2768 14.9203C25.4456 14.6775 25.8097 13.8438 25.8097 13.8438C25.8097 13.8438 24.9232 13.7224 24.5855 13.6274C24.2504 13.5324 23.9681 13.4665 23.9681 13.4665C23.9681 13.4665 23.8599 13.5825 23.8599 13.7778C23.8599 13.973 23.881 14.1261 23.881 14.1261C23.881 14.1261 23.6198 13.5562 23.9153 12.9678C24.2108 12.3794 24.4113 12.4137 24.5037 12.1868C24.5987 11.9599 24.6119 11.7725 24.6119 11.7725C24.6119 11.7725 24.6646 12.0417 24.6646 12.2422C24.6646 12.4427 24.5565 12.6512 24.5565 12.6512C24.5565 12.6512 25.005 12.3636 25.3586 12.3504C25.7121 12.3372 26.1739 11.9968 26.4535 11.8042L26.4509 11.791Z" fill="white" stroke="#262932" mask="url(#path-1-inside-1_51_4105)"/>
</svg>
