<svg width="522" height="894" viewBox="0 0 522 894" fill="none" xmlns="http://www.w3.org/2000/svg">
<mask id="path-1-inside-1_51_3278" fill="white">
<path fill-rule="evenodd" clip-rule="evenodd" d="M356.898 161.175C356.898 161.175 352.915 152.184 345.13 149.406C337.345 146.628 341.987 154.303 347.359 159.055C352.732 163.77 358.762 165.816 356.898 161.175ZM273.019 200.026C273.019 200.026 266.806 202.146 259.569 200.318C252.333 198.454 249.92 192.716 249.92 192.716C249.92 192.716 250.395 199.953 256.024 203.827C261.689 207.738 271.411 203.644 272.983 200.026H273.019ZM273.311 142.425C273.311 142.425 279.086 140.561 285.848 140.707C292.609 140.853 293.633 141.877 293.633 141.877C293.633 141.877 291.915 146.336 286.14 147.213C280.365 148.09 273.311 142.462 273.311 142.462V142.425ZM204.198 110.153C190.382 115.854 178.577 124.553 163.921 127.769C149.265 130.985 135.194 125.54 135.194 125.54C135.194 125.54 130.735 138.587 137.058 147.542C143.417 156.496 148.607 157.995 148.607 157.995C148.607 157.995 131.429 167.68 126.203 187.088C120.976 206.495 123.206 213.22 115.384 221.809C107.563 230.398 99.3395 230.763 99.3395 230.763C99.3395 230.763 104.931 244.213 115.384 246.077C125.837 247.941 128.834 246.077 128.834 246.077C128.834 246.077 126.97 271.442 116.152 278.935C105.333 286.391 97.8775 284.527 97.8775 284.527C97.8775 284.527 99.7415 296.844 112.789 300.572C125.837 304.299 133.695 302.801 133.695 302.801C133.695 302.801 124.924 318.48 130.881 338.948C136.838 359.415 154.528 372.097 154.528 372.097C154.528 372.097 149.704 362.046 148.388 349.949C147.072 337.851 148.936 333.21 148.936 333.21C148.936 333.21 151.897 351.813 163.081 364.678C174.264 377.543 187.861 386.644 183.95 400.423C180.039 414.201 164.944 406.38 164.944 406.38C164.944 406.38 174.557 421.365 183.95 422.388C193.343 423.412 197.985 424.033 203.43 422.388C203.284 414.969 203.248 407.513 203.576 400.094C204.307 383.135 205.916 363.326 208.291 346.477L208.511 344.832L206.098 341.067C198.679 330.176 192.795 319.942 187.495 307.698C176.823 283.101 169.769 256.092 169.769 229.155C169.769 206.751 172.876 183.469 180.953 162.417C184.644 152.805 186.618 145.422 194.841 138.99C195.28 135.042 196.267 128.573 197.765 124.735C199.483 120.277 201.822 116.293 203.686 111.943C203.905 111.468 204.088 110.884 204.234 110.226L204.198 110.153ZM255.476 118.339C249.445 113.734 253.386 51.7988 267.902 0.000873894C266.623 -0.328065 229.965 106.278 228.649 106.132C229.782 108.508 230.878 110.884 231.938 113.296C232.413 114.392 232.852 115.489 233.254 116.585C235.484 116.585 237.75 116.914 239.577 117.06C244.877 117.462 250.176 117.864 255.439 118.376L255.476 118.339ZM355.51 414.311C359.53 417.71 362.198 420.89 362.198 420.89C362.198 420.89 383.542 417.016 401.013 417.82C418.483 418.624 457.627 417.527 457.627 417.527C457.627 417.527 464.425 411.022 471.333 407.111C478.24 403.2 481.055 402.579 481.055 402.579C481.055 402.579 488.949 392.528 497.136 387.302C505.323 382.075 512.267 379.736 512.267 379.736L509.234 427.469L492.677 426.591C492.677 426.591 480.506 430.356 479.227 434.779C477.948 439.201 478.35 443.294 474.293 444.025C470.236 444.793 466.143 438.982 462.305 437.849C458.467 436.716 413.878 439.603 397.687 444.5C381.496 449.361 375.758 452.139 368.704 454.515C361.613 456.854 351.635 458.17 351.635 458.17C351.635 458.17 357.081 454.296 360.115 452.687L363.148 451.079C363.148 451.079 356.46 451.518 352.988 452.578C352.074 452.87 351.014 452.943 349.991 452.907C351.343 448.667 352.44 444.208 353.244 439.53C354.706 431.233 355.436 422.754 355.51 414.275V414.311ZM321.41 497.496C333.288 497.898 350.32 501.553 365.414 516.246C391.912 542.013 366.913 591.244 358.689 600.198C350.466 609.153 342.644 615.512 342.644 615.512C342.644 615.512 360.919 613.648 380.326 614.014C399.734 614.379 429.959 617.742 429.959 617.742C429.959 617.742 459.454 604.292 480.726 602.83C501.997 601.331 516.178 603.963 516.178 603.963L476.998 644.642L450.5 635.687C450.5 635.687 438.183 636.418 434.455 641.279C430.727 646.14 422.869 654.327 415.048 650.964C407.19 647.602 391.547 642.741 383.323 641.644C375.1 640.511 356.094 642.375 338.186 649.1C320.277 655.825 301.6 656.922 304.963 643.143C308.325 629.328 312.784 619.642 310.92 608.824C309.056 598.005 298.969 586.821 298.969 586.821C298.969 586.821 309.056 586.456 315.014 592.413C320.971 598.371 323.603 607.325 323.603 607.325C323.603 607.325 325.101 590.915 309.056 583.824C296.812 578.415 273.933 583.642 263.772 586.419L268.779 569.863C270.315 564.856 272.398 559.629 274.481 554.841C278.867 544.717 284.313 534.557 291.001 525.785C294.583 521.107 298.676 516.648 303.355 513.029C309.824 508.022 315.891 502.906 321.41 497.496ZM366.401 163.331C366.401 163.331 358.031 149.187 345.532 143.777C333.069 138.368 281.498 129.048 267.902 127.404C254.306 125.722 231.792 124.224 231.792 124.224C231.792 124.224 232.34 130.547 231.244 136.321C230.111 142.096 227.333 144.508 227.333 144.508C227.333 144.508 230.878 129.816 224.921 116.402C218.964 102.989 210.009 86.9807 210.009 86.9807C210.009 86.9807 211.69 108.215 208.328 116.037C204.965 123.858 199.008 131.863 199.958 145.276C200.872 158.689 205.733 165.378 205.733 165.378C205.733 165.378 201.457 164.829 199.41 158.287C197.363 151.782 196.815 144.326 196.815 144.326C196.815 144.326 175.507 171.043 175.507 228.863C175.507 286.683 209.826 336.718 209.826 336.718C209.826 336.718 208.218 323.305 208.876 316.836C209.534 310.33 211.763 307.114 211.763 307.114C211.763 307.114 210.265 323.524 214.468 339.277C218.635 355.029 230.403 376.301 230.403 376.301C230.403 376.301 219.95 362.777 216.771 356.418C213.591 350.095 213.225 347.464 213.225 347.464C213.225 347.464 209.68 372.609 208.584 398.12C207.451 423.631 210.63 467.38 210.63 467.38C210.63 467.38 207.085 460.472 206.354 453.967C205.623 447.461 205.623 447.095 205.623 447.095C205.623 447.095 183.657 478.564 170.975 494.024C158.329 509.484 152.043 540.112 147.547 565.879C143.052 591.646 138.227 600.966 132.233 605.059C120.026 613.429 104.456 622.858 89.6906 609.153C74.0112 594.606 77.7392 573.7 77.7392 573.7C77.7392 573.7 69.9177 580.791 70.2832 593.473C70.6487 606.156 73.2802 613.246 73.2802 613.246C73.2802 613.246 44.9184 587.114 63.5948 550.931C82.2347 514.747 136.363 485.252 143.819 432.622C151.275 379.992 121.415 344.942 105.37 338.217C89.3251 331.492 81.1017 332.259 81.1017 332.259C81.1017 332.259 86.6936 336.353 91.1891 342.347C95.6846 348.304 95.6846 351.667 95.6846 351.667C95.6846 351.667 75.9117 339.35 41.1904 352.032C6.46913 364.715 -0.219292 401.3 0.87717 415.481C2.01018 429.662 8.6986 443.112 8.6986 443.112C8.6986 443.112 21.0155 414.019 43.0179 417.345C65.0202 420.707 61.2922 440.48 61.2922 440.48C61.2922 440.48 59.0628 433.024 45.6128 430.795C32.1629 428.565 26.2054 434.157 26.2054 434.157C26.2054 434.157 50.8393 436.387 45.9783 457.658C41.1173 478.929 34.0269 481.524 31.4319 497.971C28.8004 514.382 31.4319 522.605 31.4319 522.605C31.4319 522.605 25.4745 514.382 17.6165 512.152C9.79506 509.923 4.56859 509.557 4.56859 509.557C4.56859 509.557 22.112 522.971 15.387 541.282C8.66205 559.556 7.93108 571.873 11.2936 584.555C14.656 597.238 20.6135 603.597 20.6135 603.597C20.6135 603.597 14.5099 600.381 8.73515 600.016C2.96045 599.65 0 600.929 0 600.929C0 600.929 20.2845 612.844 34.2462 635.76C46.3438 655.606 72.1472 661.125 96.5618 657.945C125.143 654.254 144.148 643.253 157.196 618.144C154.565 600.637 151.86 576.917 155.698 562.553C155.698 562.553 157.489 608.02 164.031 627.756C170.536 647.492 179.856 680.825 180.222 690.693C180.587 700.561 175.178 706.336 169.988 710.247C164.762 714.157 163.483 723.075 163.483 723.075C163.483 723.075 162.167 712.659 165.895 708.565C169.623 704.472 175.032 701.877 175.763 695.919C176.494 689.962 174.082 682.323 174.082 682.323C174.082 682.323 170.719 694.604 164.944 699.647C159.17 704.691 149.302 708.2 147.255 714.377C145.208 720.517 145.025 728.521 149.119 736.525C153.212 744.529 158.073 748.623 158.987 757.943C159.901 767.263 157.489 796.173 157.489 796.173C157.489 796.173 157.306 765.216 155.625 759.807C153.943 754.397 152.445 752.533 152.445 752.533C152.445 752.533 154.857 790.361 153.943 799.498C153.03 808.636 144.258 819.052 147.438 826.508C150.617 833.964 161.765 834.33 165.31 842.516C168.855 850.703 168.307 853.518 168.307 853.518C168.307 853.518 168.49 858.561 173.168 858.561C177.846 858.561 184.169 874.204 183.95 879.979C183.767 885.754 183.767 886.667 183.767 886.667C183.767 886.667 192.904 895.622 211.69 892.807C230.513 890.03 237.201 883.853 237.201 883.853C237.201 883.853 228.466 865.25 214.87 853.883C201.274 842.516 196.998 839.19 196.998 839.19C196.998 839.19 193.27 829.322 189.176 823.365C185.083 817.407 179.674 811.633 179.674 811.633C179.674 811.633 179.491 762.438 181.538 747.161C183.584 731.883 186.947 720.736 186.947 720.736C186.947 720.736 185.266 722.6 180.807 723.916C176.348 725.232 173.935 725.414 173.935 725.414C173.935 725.414 216.186 708.09 235.557 683.895C254.927 659.7 258.071 636.966 258.29 622.639C258.473 608.312 253.246 570.521 255.695 549.286C258.107 528.051 264.649 515.405 264.649 515.405C264.649 515.405 258.692 540.916 259.423 550.053C260.154 559.19 261.47 567.743 261.47 567.743C261.47 567.743 274.079 526.114 298.676 507.072C323.31 488.03 340.488 468.257 345.678 438.397C350.904 408.536 344.947 383.172 344.947 383.172C344.947 383.172 327.915 378.201 318.047 380.065C308.179 381.929 296.63 387.155 296.63 387.155C296.63 387.155 300.358 382.514 304.451 380.065C308.544 377.653 310.408 376.885 310.408 376.885C310.408 376.885 302.587 376.52 295.314 378.384C288.041 380.248 283.399 383.208 283.399 383.208C283.399 383.208 289.905 373.34 306.096 372.426C322.287 371.513 342.973 379.115 353.207 380.979C363.441 382.843 375.356 381.527 375.356 381.527C375.356 381.527 374.223 385.438 370.897 388.398C367.534 391.359 365.853 392.309 365.853 392.309C365.853 392.309 373.857 391.578 377.951 389.531C382.044 387.484 386.503 383.025 386.503 383.025C386.503 383.025 385.955 387.667 384.273 390.481C382.592 393.259 381.861 393.844 381.861 393.844C381.861 393.844 394.909 385.474 401.415 376.154C407.921 366.834 415.559 350.826 430.106 343.553C444.615 336.28 458.979 326.229 463.84 323.414C468.665 320.637 470.163 318.59 470.163 318.59C470.163 318.59 476.486 321.77 478.715 319.284C480.945 316.763 479.373 308.356 481.42 304.446C483.467 300.535 491.91 296.661 495.528 296.295C499.146 295.93 512.304 297.684 512.304 297.684L521.222 246.15C521.222 246.15 501.12 253.241 490.484 261.428C479.885 269.615 477.656 272.794 477.656 272.794C477.656 272.794 467.239 280.799 463.146 286.756C459.052 292.714 457.005 297.94 446.187 302.764C435.405 307.589 411.539 315.995 402.95 321.222C394.397 326.448 386.941 338.728 386.941 338.728C386.941 338.728 375.392 335.366 363.66 334.452C351.928 333.502 347.286 333.319 347.286 333.319C347.286 333.319 333.507 315.995 323.091 309.489C312.674 302.984 298.494 299.804 298.494 299.804C298.494 299.804 312.821 300.352 320.094 303.349C327.367 306.346 331.461 309.855 331.461 309.855C331.461 309.855 321.958 294.029 311.359 286.025C300.76 278.021 279.708 266.837 279.708 266.837C279.708 266.837 269.474 256.055 263.699 242.24C257.924 228.461 257.559 217.862 257.559 217.862C257.559 217.862 249.189 215.449 242.464 206.861C235.776 198.308 235.776 187.307 237.055 179.12C238.371 170.933 241.88 168.521 241.88 168.521C241.88 168.521 237.969 180.436 242.062 193.484C246.156 206.532 256.389 214.536 264.394 213.951C272.398 213.403 280.767 199.624 297.178 198.674C313.552 197.76 320.094 210.04 336.285 206.678C352.476 203.315 357.52 191.766 357.52 191.766C357.52 191.766 345.239 190.085 340.561 188.769C335.919 187.453 332.009 186.539 332.009 186.539C332.009 186.539 330.51 188.148 330.51 190.852C330.51 193.557 330.803 195.677 330.803 195.677C330.803 195.677 327.184 187.782 331.278 179.632C335.371 171.481 338.149 171.957 339.428 168.813C340.744 165.67 340.927 163.075 340.927 163.075C340.927 163.075 341.658 166.803 341.658 169.581C341.658 172.359 340.159 175.246 340.159 175.246C340.159 175.246 346.372 171.262 351.27 171.079C356.167 170.897 362.564 166.182 366.438 163.514L366.401 163.331Z"/>
</mask>
<path fill-rule="evenodd" clip-rule="evenodd" d="M356.898 161.175C356.898 161.175 352.915 152.184 345.13 149.406C337.345 146.628 341.987 154.303 347.359 159.055C352.732 163.77 358.762 165.816 356.898 161.175ZM273.019 200.026C273.019 200.026 266.806 202.146 259.569 200.318C252.333 198.454 249.92 192.716 249.92 192.716C249.92 192.716 250.395 199.953 256.024 203.827C261.689 207.738 271.411 203.644 272.983 200.026H273.019ZM273.311 142.425C273.311 142.425 279.086 140.561 285.848 140.707C292.609 140.853 293.633 141.877 293.633 141.877C293.633 141.877 291.915 146.336 286.14 147.213C280.365 148.09 273.311 142.462 273.311 142.462V142.425ZM204.198 110.153C190.382 115.854 178.577 124.553 163.921 127.769C149.265 130.985 135.194 125.54 135.194 125.54C135.194 125.54 130.735 138.587 137.058 147.542C143.417 156.496 148.607 157.995 148.607 157.995C148.607 157.995 131.429 167.68 126.203 187.088C120.976 206.495 123.206 213.22 115.384 221.809C107.563 230.398 99.3395 230.763 99.3395 230.763C99.3395 230.763 104.931 244.213 115.384 246.077C125.837 247.941 128.834 246.077 128.834 246.077C128.834 246.077 126.97 271.442 116.152 278.935C105.333 286.391 97.8775 284.527 97.8775 284.527C97.8775 284.527 99.7415 296.844 112.789 300.572C125.837 304.299 133.695 302.801 133.695 302.801C133.695 302.801 124.924 318.48 130.881 338.948C136.838 359.415 154.528 372.097 154.528 372.097C154.528 372.097 149.704 362.046 148.388 349.949C147.072 337.851 148.936 333.21 148.936 333.21C148.936 333.21 151.897 351.813 163.081 364.678C174.264 377.543 187.861 386.644 183.95 400.423C180.039 414.201 164.944 406.38 164.944 406.38C164.944 406.38 174.557 421.365 183.95 422.388C193.343 423.412 197.985 424.033 203.43 422.388C203.284 414.969 203.248 407.513 203.576 400.094C204.307 383.135 205.916 363.326 208.291 346.477L208.511 344.832L206.098 341.067C198.679 330.176 192.795 319.942 187.495 307.698C176.823 283.101 169.769 256.092 169.769 229.155C169.769 206.751 172.876 183.469 180.953 162.417C184.644 152.805 186.618 145.422 194.841 138.99C195.28 135.042 196.267 128.573 197.765 124.735C199.483 120.277 201.822 116.293 203.686 111.943C203.905 111.468 204.088 110.884 204.234 110.226L204.198 110.153ZM255.476 118.339C249.445 113.734 253.386 51.7988 267.902 0.000873894C266.623 -0.328065 229.965 106.278 228.649 106.132C229.782 108.508 230.878 110.884 231.938 113.296C232.413 114.392 232.852 115.489 233.254 116.585C235.484 116.585 237.75 116.914 239.577 117.06C244.877 117.462 250.176 117.864 255.439 118.376L255.476 118.339ZM355.51 414.311C359.53 417.71 362.198 420.89 362.198 420.89C362.198 420.89 383.542 417.016 401.013 417.82C418.483 418.624 457.627 417.527 457.627 417.527C457.627 417.527 464.425 411.022 471.333 407.111C478.24 403.2 481.055 402.579 481.055 402.579C481.055 402.579 488.949 392.528 497.136 387.302C505.323 382.075 512.267 379.736 512.267 379.736L509.234 427.469L492.677 426.591C492.677 426.591 480.506 430.356 479.227 434.779C477.948 439.201 478.35 443.294 474.293 444.025C470.236 444.793 466.143 438.982 462.305 437.849C458.467 436.716 413.878 439.603 397.687 444.5C381.496 449.361 375.758 452.139 368.704 454.515C361.613 456.854 351.635 458.17 351.635 458.17C351.635 458.17 357.081 454.296 360.115 452.687L363.148 451.079C363.148 451.079 356.46 451.518 352.988 452.578C352.074 452.87 351.014 452.943 349.991 452.907C351.343 448.667 352.44 444.208 353.244 439.53C354.706 431.233 355.436 422.754 355.51 414.275V414.311ZM321.41 497.496C333.288 497.898 350.32 501.553 365.414 516.246C391.912 542.013 366.913 591.244 358.689 600.198C350.466 609.153 342.644 615.512 342.644 615.512C342.644 615.512 360.919 613.648 380.326 614.014C399.734 614.379 429.959 617.742 429.959 617.742C429.959 617.742 459.454 604.292 480.726 602.83C501.997 601.331 516.178 603.963 516.178 603.963L476.998 644.642L450.5 635.687C450.5 635.687 438.183 636.418 434.455 641.279C430.727 646.14 422.869 654.327 415.048 650.964C407.19 647.602 391.547 642.741 383.323 641.644C375.1 640.511 356.094 642.375 338.186 649.1C320.277 655.825 301.6 656.922 304.963 643.143C308.325 629.328 312.784 619.642 310.92 608.824C309.056 598.005 298.969 586.821 298.969 586.821C298.969 586.821 309.056 586.456 315.014 592.413C320.971 598.371 323.603 607.325 323.603 607.325C323.603 607.325 325.101 590.915 309.056 583.824C296.812 578.415 273.933 583.642 263.772 586.419L268.779 569.863C270.315 564.856 272.398 559.629 274.481 554.841C278.867 544.717 284.313 534.557 291.001 525.785C294.583 521.107 298.676 516.648 303.355 513.029C309.824 508.022 315.891 502.906 321.41 497.496ZM366.401 163.331C366.401 163.331 358.031 149.187 345.532 143.777C333.069 138.368 281.498 129.048 267.902 127.404C254.306 125.722 231.792 124.224 231.792 124.224C231.792 124.224 232.34 130.547 231.244 136.321C230.111 142.096 227.333 144.508 227.333 144.508C227.333 144.508 230.878 129.816 224.921 116.402C218.964 102.989 210.009 86.9807 210.009 86.9807C210.009 86.9807 211.69 108.215 208.328 116.037C204.965 123.858 199.008 131.863 199.958 145.276C200.872 158.689 205.733 165.378 205.733 165.378C205.733 165.378 201.457 164.829 199.41 158.287C197.363 151.782 196.815 144.326 196.815 144.326C196.815 144.326 175.507 171.043 175.507 228.863C175.507 286.683 209.826 336.718 209.826 336.718C209.826 336.718 208.218 323.305 208.876 316.836C209.534 310.33 211.763 307.114 211.763 307.114C211.763 307.114 210.265 323.524 214.468 339.277C218.635 355.029 230.403 376.301 230.403 376.301C230.403 376.301 219.95 362.777 216.771 356.418C213.591 350.095 213.225 347.464 213.225 347.464C213.225 347.464 209.68 372.609 208.584 398.12C207.451 423.631 210.63 467.38 210.63 467.38C210.63 467.38 207.085 460.472 206.354 453.967C205.623 447.461 205.623 447.095 205.623 447.095C205.623 447.095 183.657 478.564 170.975 494.024C158.329 509.484 152.043 540.112 147.547 565.879C143.052 591.646 138.227 600.966 132.233 605.059C120.026 613.429 104.456 622.858 89.6906 609.153C74.0112 594.606 77.7392 573.7 77.7392 573.7C77.7392 573.7 69.9177 580.791 70.2832 593.473C70.6487 606.156 73.2802 613.246 73.2802 613.246C73.2802 613.246 44.9184 587.114 63.5948 550.931C82.2347 514.747 136.363 485.252 143.819 432.622C151.275 379.992 121.415 344.942 105.37 338.217C89.3251 331.492 81.1017 332.259 81.1017 332.259C81.1017 332.259 86.6936 336.353 91.1891 342.347C95.6846 348.304 95.6846 351.667 95.6846 351.667C95.6846 351.667 75.9117 339.35 41.1904 352.032C6.46913 364.715 -0.219292 401.3 0.87717 415.481C2.01018 429.662 8.6986 443.112 8.6986 443.112C8.6986 443.112 21.0155 414.019 43.0179 417.345C65.0202 420.707 61.2922 440.48 61.2922 440.48C61.2922 440.48 59.0628 433.024 45.6128 430.795C32.1629 428.565 26.2054 434.157 26.2054 434.157C26.2054 434.157 50.8393 436.387 45.9783 457.658C41.1173 478.929 34.0269 481.524 31.4319 497.971C28.8004 514.382 31.4319 522.605 31.4319 522.605C31.4319 522.605 25.4745 514.382 17.6165 512.152C9.79506 509.923 4.56859 509.557 4.56859 509.557C4.56859 509.557 22.112 522.971 15.387 541.282C8.66205 559.556 7.93108 571.873 11.2936 584.555C14.656 597.238 20.6135 603.597 20.6135 603.597C20.6135 603.597 14.5099 600.381 8.73515 600.016C2.96045 599.65 0 600.929 0 600.929C0 600.929 20.2845 612.844 34.2462 635.76C46.3438 655.606 72.1472 661.125 96.5618 657.945C125.143 654.254 144.148 643.253 157.196 618.144C154.565 600.637 151.86 576.917 155.698 562.553C155.698 562.553 157.489 608.02 164.031 627.756C170.536 647.492 179.856 680.825 180.222 690.693C180.587 700.561 175.178 706.336 169.988 710.247C164.762 714.157 163.483 723.075 163.483 723.075C163.483 723.075 162.167 712.659 165.895 708.565C169.623 704.472 175.032 701.877 175.763 695.919C176.494 689.962 174.082 682.323 174.082 682.323C174.082 682.323 170.719 694.604 164.944 699.647C159.17 704.691 149.302 708.2 147.255 714.377C145.208 720.517 145.025 728.521 149.119 736.525C153.212 744.529 158.073 748.623 158.987 757.943C159.901 767.263 157.489 796.173 157.489 796.173C157.489 796.173 157.306 765.216 155.625 759.807C153.943 754.397 152.445 752.533 152.445 752.533C152.445 752.533 154.857 790.361 153.943 799.498C153.03 808.636 144.258 819.052 147.438 826.508C150.617 833.964 161.765 834.33 165.31 842.516C168.855 850.703 168.307 853.518 168.307 853.518C168.307 853.518 168.49 858.561 173.168 858.561C177.846 858.561 184.169 874.204 183.95 879.979C183.767 885.754 183.767 886.667 183.767 886.667C183.767 886.667 192.904 895.622 211.69 892.807C230.513 890.03 237.201 883.853 237.201 883.853C237.201 883.853 228.466 865.25 214.87 853.883C201.274 842.516 196.998 839.19 196.998 839.19C196.998 839.19 193.27 829.322 189.176 823.365C185.083 817.407 179.674 811.633 179.674 811.633C179.674 811.633 179.491 762.438 181.538 747.161C183.584 731.883 186.947 720.736 186.947 720.736C186.947 720.736 185.266 722.6 180.807 723.916C176.348 725.232 173.935 725.414 173.935 725.414C173.935 725.414 216.186 708.09 235.557 683.895C254.927 659.7 258.071 636.966 258.29 622.639C258.473 608.312 253.246 570.521 255.695 549.286C258.107 528.051 264.649 515.405 264.649 515.405C264.649 515.405 258.692 540.916 259.423 550.053C260.154 559.19 261.47 567.743 261.47 567.743C261.47 567.743 274.079 526.114 298.676 507.072C323.31 488.03 340.488 468.257 345.678 438.397C350.904 408.536 344.947 383.172 344.947 383.172C344.947 383.172 327.915 378.201 318.047 380.065C308.179 381.929 296.63 387.155 296.63 387.155C296.63 387.155 300.358 382.514 304.451 380.065C308.544 377.653 310.408 376.885 310.408 376.885C310.408 376.885 302.587 376.52 295.314 378.384C288.041 380.248 283.399 383.208 283.399 383.208C283.399 383.208 289.905 373.34 306.096 372.426C322.287 371.513 342.973 379.115 353.207 380.979C363.441 382.843 375.356 381.527 375.356 381.527C375.356 381.527 374.223 385.438 370.897 388.398C367.534 391.359 365.853 392.309 365.853 392.309C365.853 392.309 373.857 391.578 377.951 389.531C382.044 387.484 386.503 383.025 386.503 383.025C386.503 383.025 385.955 387.667 384.273 390.481C382.592 393.259 381.861 393.844 381.861 393.844C381.861 393.844 394.909 385.474 401.415 376.154C407.921 366.834 415.559 350.826 430.106 343.553C444.615 336.28 458.979 326.229 463.84 323.414C468.665 320.637 470.163 318.59 470.163 318.59C470.163 318.59 476.486 321.77 478.715 319.284C480.945 316.763 479.373 308.356 481.42 304.446C483.467 300.535 491.91 296.661 495.528 296.295C499.146 295.93 512.304 297.684 512.304 297.684L521.222 246.15C521.222 246.15 501.12 253.241 490.484 261.428C479.885 269.615 477.656 272.794 477.656 272.794C477.656 272.794 467.239 280.799 463.146 286.756C459.052 292.714 457.005 297.94 446.187 302.764C435.405 307.589 411.539 315.995 402.95 321.222C394.397 326.448 386.941 338.728 386.941 338.728C386.941 338.728 375.392 335.366 363.66 334.452C351.928 333.502 347.286 333.319 347.286 333.319C347.286 333.319 333.507 315.995 323.091 309.489C312.674 302.984 298.494 299.804 298.494 299.804C298.494 299.804 312.821 300.352 320.094 303.349C327.367 306.346 331.461 309.855 331.461 309.855C331.461 309.855 321.958 294.029 311.359 286.025C300.76 278.021 279.708 266.837 279.708 266.837C279.708 266.837 269.474 256.055 263.699 242.24C257.924 228.461 257.559 217.862 257.559 217.862C257.559 217.862 249.189 215.449 242.464 206.861C235.776 198.308 235.776 187.307 237.055 179.12C238.371 170.933 241.88 168.521 241.88 168.521C241.88 168.521 237.969 180.436 242.062 193.484C246.156 206.532 256.389 214.536 264.394 213.951C272.398 213.403 280.767 199.624 297.178 198.674C313.552 197.76 320.094 210.04 336.285 206.678C352.476 203.315 357.52 191.766 357.52 191.766C357.52 191.766 345.239 190.085 340.561 188.769C335.919 187.453 332.009 186.539 332.009 186.539C332.009 186.539 330.51 188.148 330.51 190.852C330.51 193.557 330.803 195.677 330.803 195.677C330.803 195.677 327.184 187.782 331.278 179.632C335.371 171.481 338.149 171.957 339.428 168.813C340.744 165.67 340.927 163.075 340.927 163.075C340.927 163.075 341.658 166.803 341.658 169.581C341.658 172.359 340.159 175.246 340.159 175.246C340.159 175.246 346.372 171.262 351.27 171.079C356.167 170.897 362.564 166.182 366.438 163.514L366.401 163.331Z" fill="white" stroke="#262932" stroke-width="2" mask="url(#path-1-inside-1_51_3278)"/>
</svg>
