<svg width="269" height="460" viewBox="0 0 269 460" fill="none" xmlns="http://www.w3.org/2000/svg">
<mask id="path-1-inside-1_76_9128" fill="white">
<path fill-rule="evenodd" clip-rule="evenodd" d="M183.671 82.9452C183.671 82.9452 181.62 78.3182 177.614 76.8887C173.608 75.4592 175.997 79.4092 178.762 81.8543C181.526 84.2807 184.63 85.334 183.671 82.9452ZM140.504 102.939C140.504 102.939 137.306 104.03 133.582 103.09C129.858 102.131 128.616 99.1775 128.616 99.1775C128.616 99.1775 128.861 102.902 131.758 104.895C134.673 106.908 139.676 104.801 140.485 102.939H140.504ZM140.654 73.2962C140.654 73.2962 143.626 72.3369 147.106 72.4122C150.586 72.4874 151.112 73.014 151.112 73.014C151.112 73.014 150.228 75.3088 147.256 75.7602C144.284 76.2116 140.654 73.315 140.654 73.315V73.2962ZM105.086 56.6878C97.9765 59.622 91.9012 64.0985 84.3587 65.7537C76.8163 67.4089 69.5748 64.6064 69.5748 64.6064C69.5748 64.6064 67.2801 71.3212 70.5341 75.9295C73.8068 80.5377 76.4777 81.3089 76.4777 81.3089C76.4777 81.3089 67.6375 86.2933 64.9478 96.2809C62.2581 106.269 63.4054 109.729 59.3803 114.15C55.3551 118.57 51.1231 118.758 51.1231 118.758C51.1231 118.758 54.0009 125.679 59.3803 126.639C64.7597 127.598 66.302 126.639 66.302 126.639C66.302 126.639 65.3427 139.692 59.7753 143.548C54.2078 147.385 50.3707 146.426 50.3707 146.426C50.3707 146.426 51.33 152.765 58.0448 154.683C64.7597 156.602 68.8036 155.83 68.8036 155.83C68.8036 155.83 64.2894 163.9 67.3553 174.433C70.4212 184.966 79.5248 191.492 79.5248 191.492C79.5248 191.492 77.042 186.32 76.3649 180.094C75.6877 173.868 76.647 171.48 76.647 171.48C76.647 171.48 78.1706 181.053 83.9261 187.674C89.6817 194.295 96.6787 198.978 94.6661 206.069C92.6535 213.161 84.8854 209.135 84.8854 209.135C84.8854 209.135 89.8322 216.847 94.6661 217.374C99.5 217.9 101.889 218.22 104.691 217.374C104.616 213.556 104.597 209.718 104.767 205.9C105.143 197.173 105.97 186.978 107.193 178.307L107.306 177.461L106.064 175.524C102.246 169.918 99.2179 164.652 96.4906 158.351C90.9983 145.692 87.3682 131.792 87.3682 117.93C87.3682 106.4 88.967 94.4188 93.1238 83.5848C95.0235 78.638 96.0392 74.8385 100.271 71.5281C100.497 69.4968 101.005 66.1675 101.776 64.1926C102.66 61.8979 103.864 59.8477 104.823 57.6094C104.936 57.3649 105.03 57.064 105.105 56.7254L105.086 56.6878ZM131.475 60.901C128.372 58.531 130.4 26.6571 137.871 0.000396812C137.212 -0.168885 118.347 54.694 117.67 54.6188C118.253 55.8414 118.817 57.064 119.362 58.3054C119.607 58.8696 119.833 59.4339 120.04 59.9982C121.187 59.9982 122.353 60.1675 123.294 60.2427C126.021 60.4496 128.748 60.6565 131.457 60.9198L131.475 60.901ZM182.956 213.217C185.025 214.966 186.398 216.603 186.398 216.603C186.398 216.603 197.383 214.609 206.373 215.023C215.364 215.436 235.508 214.872 235.508 214.872C235.508 214.872 239.007 211.524 242.562 209.512C246.117 207.499 247.565 207.179 247.565 207.179C247.565 207.179 251.628 202.007 255.841 199.317C260.054 196.627 263.628 195.424 263.628 195.424L262.067 219.988L253.546 219.537C253.546 219.537 247.283 221.474 246.625 223.75C245.966 226.026 246.173 228.133 244.085 228.509C241.998 228.904 239.891 225.913 237.916 225.33C235.941 224.747 212.994 226.233 204.662 228.753C196.329 231.255 193.376 232.684 189.746 233.907C186.097 235.111 180.962 235.788 180.962 235.788C180.962 235.788 183.765 233.794 185.326 232.967L186.887 232.139C186.887 232.139 183.445 232.365 181.658 232.91C181.188 233.061 180.642 233.098 180.116 233.079C180.812 230.897 181.376 228.603 181.79 226.195C182.542 221.926 182.918 217.562 182.956 213.198V213.217ZM165.407 256.027C171.52 256.233 180.285 258.114 188.053 265.676C201.69 278.936 188.824 304.272 184.592 308.88C180.36 313.488 176.335 316.761 176.335 316.761C176.335 316.761 185.74 315.802 195.727 315.99C205.715 316.178 221.27 317.908 221.27 317.908C221.27 317.908 236.449 310.987 247.396 310.234C258.343 309.463 265.641 310.817 265.641 310.817L245.477 331.752L231.841 327.144C231.841 327.144 225.502 327.52 223.584 330.021C221.665 332.523 217.621 336.736 213.596 335.006C209.552 333.275 201.502 330.774 197.27 330.21C193.038 329.626 183.257 330.586 174.04 334.047C164.824 337.507 155.213 338.072 156.943 330.981C158.673 323.871 160.968 318.886 160.009 313.319C159.05 307.752 153.858 301.996 153.858 301.996C153.858 301.996 159.05 301.808 162.115 304.874C165.181 307.94 166.536 312.548 166.536 312.548C166.536 312.548 167.307 304.103 159.05 300.454C152.749 297.67 140.974 300.36 135.745 301.789L138.322 293.269C139.112 290.692 140.184 288.002 141.256 285.538C143.513 280.328 146.316 275.099 149.758 270.585C151.601 268.177 153.708 265.882 156.115 264.02C159.445 261.444 162.567 258.81 165.407 256.027ZM188.561 84.055C188.561 84.055 184.254 76.7759 177.821 73.9921C171.407 71.2084 144.868 66.4121 137.871 65.5657C130.874 64.7004 119.287 63.9292 119.287 63.9292C119.287 63.9292 119.569 67.1832 119.005 70.1551C118.422 73.1269 116.992 74.3683 116.992 74.3683C116.992 74.3683 118.817 66.807 115.751 59.9041C112.685 53.0012 108.077 44.7628 108.077 44.7628C108.077 44.7628 108.942 55.6909 107.212 59.716C105.481 63.7412 102.415 67.8604 102.904 74.7633C103.375 81.6662 105.876 85.1083 105.876 85.1083C105.876 85.1083 103.676 84.8262 102.622 81.4593C101.569 78.1113 101.287 74.2742 101.287 74.2742C101.287 74.2742 90.3212 88.0237 90.3212 117.78C90.3212 147.536 107.983 173.285 107.983 173.285C107.983 173.285 107.155 166.382 107.494 163.053C107.832 159.705 108.98 158.05 108.98 158.05C108.98 158.05 108.209 166.495 110.372 174.602C112.516 182.709 118.572 193.656 118.572 193.656C118.572 193.656 113.193 186.696 111.557 183.423C109.92 180.169 109.732 178.815 109.732 178.815C109.732 178.815 107.908 191.756 107.343 204.885C106.76 218.013 108.397 240.528 108.397 240.528C108.397 240.528 106.572 236.973 106.196 233.625C105.82 230.277 105.82 230.089 105.82 230.089C105.82 230.089 94.5156 246.283 87.9889 254.24C81.4809 262.196 78.2458 277.958 75.9323 291.218C73.6188 304.479 71.1359 309.275 68.0513 311.382C61.769 315.689 53.7564 320.542 46.1575 313.488C38.0884 306.002 40.0069 295.243 40.0069 295.243C40.0069 295.243 35.9818 298.892 36.1699 305.419C36.358 311.946 37.7122 315.595 37.7122 315.595C37.7122 315.595 23.1164 302.146 32.7278 283.525C42.3204 264.904 70.1767 249.725 74.0137 222.64C77.8508 195.555 62.4838 177.517 54.2266 174.056C45.9694 170.596 41.7374 170.991 41.7374 170.991C41.7374 170.991 44.6151 173.097 46.9287 176.182C49.2422 179.248 49.2422 180.978 49.2422 180.978C49.2422 180.978 39.0665 174.64 21.1978 181.166C3.32921 187.693 -0.112854 206.521 0.451418 213.819C1.0345 221.117 4.47656 228.039 4.47656 228.039C4.47656 228.039 10.8152 213.066 22.1383 214.778C33.4614 216.509 31.5428 226.684 31.5428 226.684C31.5428 226.684 30.3955 222.847 23.4737 221.7C16.552 220.553 13.4861 223.43 13.4861 223.43C13.4861 223.43 26.1634 224.578 23.6618 235.525C21.1602 246.471 17.5113 247.807 16.1758 256.271C14.8216 264.716 16.1758 268.948 16.1758 268.948C16.1758 268.948 13.1099 264.716 9.06598 263.569C5.04083 262.422 2.35114 262.234 2.35114 262.234C2.35114 262.234 11.3795 269.136 7.91862 278.56C4.45775 287.964 4.08157 294.303 5.81201 300.83C7.54244 307.356 10.6083 310.629 10.6083 310.629C10.6083 310.629 7.46721 308.974 4.49537 308.786C1.52354 308.598 0 309.256 0 309.256C0 309.256 10.439 315.388 17.6241 327.181C23.8499 337.395 37.1291 340.235 49.6936 338.598C64.4023 336.699 74.183 331.037 80.8979 318.115C79.5436 309.106 78.1517 296.899 80.1267 289.507C80.1267 289.507 81.0483 312.905 84.4152 323.062C87.7632 333.219 92.5595 350.373 92.7476 355.451C92.9357 360.53 90.1519 363.502 87.481 365.514C84.7913 367.527 84.133 372.116 84.133 372.116C84.133 372.116 83.4559 366.756 85.3744 364.649C87.2929 362.542 90.0767 361.207 90.4529 358.141C90.8291 355.075 89.5877 351.144 89.5877 351.144C89.5877 351.144 87.8572 357.464 84.8854 360.06C81.9135 362.655 76.8351 364.461 75.7818 367.64C74.7285 370.8 74.6344 374.919 76.7411 379.038C78.8477 383.157 81.3493 385.264 81.8195 390.06C82.2897 394.856 81.0483 409.734 81.0483 409.734C81.0483 409.734 80.9543 393.803 80.0891 391.019C79.2239 388.236 78.4527 387.276 78.4527 387.276C78.4527 387.276 79.6941 406.744 79.2239 411.446C78.7536 416.148 74.2394 421.509 75.8758 425.346C77.5122 429.183 83.249 429.371 85.0735 433.584C86.898 437.798 86.6158 439.246 86.6158 439.246C86.6158 439.246 86.7099 441.841 89.1174 441.841C91.525 441.841 94.779 449.892 94.6661 452.864C94.5721 455.835 94.5721 456.306 94.5721 456.306C94.5721 456.306 99.2743 460.914 108.942 459.466C118.629 458.036 122.071 454.857 122.071 454.857C122.071 454.857 117.576 445.284 110.579 439.434C103.582 433.584 101.381 431.873 101.381 431.873C101.381 431.873 99.4624 426.794 97.3558 423.728C95.2492 420.662 92.4655 417.691 92.4655 417.691C92.4655 417.691 92.3714 392.374 93.4247 384.511C94.478 376.649 96.2085 370.912 96.2085 370.912C96.2085 370.912 95.3432 371.872 93.0485 372.549C90.7538 373.226 89.5124 373.32 89.5124 373.32C89.5124 373.32 111.256 364.405 121.225 351.953C131.193 339.501 132.811 327.802 132.924 320.429C133.018 313.056 130.328 293.607 131.588 282.679C132.83 271.751 136.197 265.243 136.197 265.243C136.197 265.243 133.131 278.372 133.507 283.074C133.883 287.776 134.56 292.178 134.56 292.178C134.56 292.178 141.049 270.754 153.708 260.954C166.385 251.155 175.225 240.979 177.896 225.612C180.586 210.245 177.52 197.192 177.52 197.192C177.52 197.192 168.755 194.634 163.677 195.593C158.598 196.552 152.655 199.242 152.655 199.242C152.655 199.242 154.573 196.853 156.68 195.593C158.786 194.351 159.746 193.956 159.746 193.956C159.746 193.956 155.72 193.768 151.977 194.728C148.234 195.687 145.846 197.21 145.846 197.21C145.846 197.21 149.194 192.132 157.526 191.662C165.858 191.192 176.504 195.104 181.771 196.063C187.038 197.022 193.169 196.345 193.169 196.345C193.169 196.345 192.586 198.358 190.875 199.881C189.144 201.405 188.279 201.894 188.279 201.894C188.279 201.894 192.398 201.518 194.505 200.464C196.611 199.411 198.906 197.116 198.906 197.116C198.906 197.116 198.624 199.505 197.759 200.953C196.893 202.383 196.517 202.684 196.517 202.684C196.517 202.684 203.232 198.377 206.58 193.58C209.928 188.784 213.859 180.546 221.345 176.803C228.812 173.06 236.204 167.887 238.706 166.439C241.189 165.009 241.96 163.956 241.96 163.956C241.96 163.956 245.214 165.592 246.361 164.313C247.509 163.016 246.7 158.689 247.753 156.677C248.807 154.664 253.151 152.671 255.014 152.482C256.876 152.294 263.647 153.197 263.647 153.197L268.236 126.676C268.236 126.676 257.891 130.325 252.418 134.539C246.963 138.752 245.816 140.388 245.816 140.388C245.816 140.388 240.455 144.507 238.349 147.573C236.242 150.639 235.189 153.329 229.621 155.812C224.073 158.294 211.79 162.621 207.37 165.31C202.969 168 199.132 174.32 199.132 174.32C199.132 174.32 193.188 172.589 187.15 172.119C181.113 171.63 178.724 171.536 178.724 171.536C178.724 171.536 171.633 162.621 166.272 159.273C160.912 155.925 153.614 154.288 153.614 154.288C153.614 154.288 160.987 154.57 164.73 156.113C168.473 157.655 170.58 159.461 170.58 159.461C170.58 159.461 165.689 151.316 160.235 147.197C154.78 143.078 143.946 137.322 143.946 137.322C143.946 137.322 138.679 131.774 135.708 124.664C132.736 117.573 132.548 112.118 132.548 112.118C132.548 112.118 128.24 110.877 124.779 106.457C121.337 102.055 121.337 96.3937 121.996 92.1805C122.673 87.9673 124.479 86.7259 124.479 86.7259C124.479 86.7259 122.466 92.8576 124.573 99.5725C126.679 106.287 131.946 110.407 136.065 110.106C140.184 109.823 144.491 102.732 152.937 102.243C161.363 101.773 164.73 108.093 173.062 106.363C181.395 104.632 183.99 98.6885 183.99 98.6885C183.99 98.6885 177.671 97.8232 175.263 97.1461C172.874 96.469 170.862 95.9987 170.862 95.9987C170.862 95.9987 170.091 96.8264 170.091 98.2182C170.091 99.6101 170.241 100.701 170.241 100.701C170.241 100.701 168.379 96.6383 170.486 92.4438C172.592 88.2494 174.022 88.4939 174.68 86.8764C175.357 85.2588 175.451 83.9233 175.451 83.9233C175.451 83.9233 175.827 85.8418 175.827 87.2713C175.827 88.7008 175.056 90.1867 175.056 90.1867C175.056 90.1867 178.254 88.1366 180.774 88.0425C183.295 87.9485 186.586 85.5221 188.58 84.149L188.561 84.055Z"/>
</mask>
<path fill-rule="evenodd" clip-rule="evenodd" d="M183.671 82.9452C183.671 82.9452 181.62 78.3182 177.614 76.8887C173.608 75.4592 175.997 79.4092 178.762 81.8543C181.526 84.2807 184.63 85.334 183.671 82.9452ZM140.504 102.939C140.504 102.939 137.306 104.03 133.582 103.09C129.858 102.131 128.616 99.1775 128.616 99.1775C128.616 99.1775 128.861 102.902 131.758 104.895C134.673 106.908 139.676 104.801 140.485 102.939H140.504ZM140.654 73.2962C140.654 73.2962 143.626 72.3369 147.106 72.4122C150.586 72.4874 151.112 73.014 151.112 73.014C151.112 73.014 150.228 75.3088 147.256 75.7602C144.284 76.2116 140.654 73.315 140.654 73.315V73.2962ZM105.086 56.6878C97.9765 59.622 91.9012 64.0985 84.3587 65.7537C76.8163 67.4089 69.5748 64.6064 69.5748 64.6064C69.5748 64.6064 67.2801 71.3212 70.5341 75.9295C73.8068 80.5377 76.4777 81.3089 76.4777 81.3089C76.4777 81.3089 67.6375 86.2933 64.9478 96.2809C62.2581 106.269 63.4054 109.729 59.3803 114.15C55.3551 118.57 51.1231 118.758 51.1231 118.758C51.1231 118.758 54.0009 125.679 59.3803 126.639C64.7597 127.598 66.302 126.639 66.302 126.639C66.302 126.639 65.3427 139.692 59.7753 143.548C54.2078 147.385 50.3707 146.426 50.3707 146.426C50.3707 146.426 51.33 152.765 58.0448 154.683C64.7597 156.602 68.8036 155.83 68.8036 155.83C68.8036 155.83 64.2894 163.9 67.3553 174.433C70.4212 184.966 79.5248 191.492 79.5248 191.492C79.5248 191.492 77.042 186.32 76.3649 180.094C75.6877 173.868 76.647 171.48 76.647 171.48C76.647 171.48 78.1706 181.053 83.9261 187.674C89.6817 194.295 96.6787 198.978 94.6661 206.069C92.6535 213.161 84.8854 209.135 84.8854 209.135C84.8854 209.135 89.8322 216.847 94.6661 217.374C99.5 217.9 101.889 218.22 104.691 217.374C104.616 213.556 104.597 209.718 104.767 205.9C105.143 197.173 105.97 186.978 107.193 178.307L107.306 177.461L106.064 175.524C102.246 169.918 99.2179 164.652 96.4906 158.351C90.9983 145.692 87.3682 131.792 87.3682 117.93C87.3682 106.4 88.967 94.4188 93.1238 83.5848C95.0235 78.638 96.0392 74.8385 100.271 71.5281C100.497 69.4968 101.005 66.1675 101.776 64.1926C102.66 61.8979 103.864 59.8477 104.823 57.6094C104.936 57.3649 105.03 57.064 105.105 56.7254L105.086 56.6878ZM131.475 60.901C128.372 58.531 130.4 26.6571 137.871 0.000396812C137.212 -0.168885 118.347 54.694 117.67 54.6188C118.253 55.8414 118.817 57.064 119.362 58.3054C119.607 58.8696 119.833 59.4339 120.04 59.9982C121.187 59.9982 122.353 60.1675 123.294 60.2427C126.021 60.4496 128.748 60.6565 131.457 60.9198L131.475 60.901ZM182.956 213.217C185.025 214.966 186.398 216.603 186.398 216.603C186.398 216.603 197.383 214.609 206.373 215.023C215.364 215.436 235.508 214.872 235.508 214.872C235.508 214.872 239.007 211.524 242.562 209.512C246.117 207.499 247.565 207.179 247.565 207.179C247.565 207.179 251.628 202.007 255.841 199.317C260.054 196.627 263.628 195.424 263.628 195.424L262.067 219.988L253.546 219.537C253.546 219.537 247.283 221.474 246.625 223.75C245.966 226.026 246.173 228.133 244.085 228.509C241.998 228.904 239.891 225.913 237.916 225.33C235.941 224.747 212.994 226.233 204.662 228.753C196.329 231.255 193.376 232.684 189.746 233.907C186.097 235.111 180.962 235.788 180.962 235.788C180.962 235.788 183.765 233.794 185.326 232.967L186.887 232.139C186.887 232.139 183.445 232.365 181.658 232.91C181.188 233.061 180.642 233.098 180.116 233.079C180.812 230.897 181.376 228.603 181.79 226.195C182.542 221.926 182.918 217.562 182.956 213.198V213.217ZM165.407 256.027C171.52 256.233 180.285 258.114 188.053 265.676C201.69 278.936 188.824 304.272 184.592 308.88C180.36 313.488 176.335 316.761 176.335 316.761C176.335 316.761 185.74 315.802 195.727 315.99C205.715 316.178 221.27 317.908 221.27 317.908C221.27 317.908 236.449 310.987 247.396 310.234C258.343 309.463 265.641 310.817 265.641 310.817L245.477 331.752L231.841 327.144C231.841 327.144 225.502 327.52 223.584 330.021C221.665 332.523 217.621 336.736 213.596 335.006C209.552 333.275 201.502 330.774 197.27 330.21C193.038 329.626 183.257 330.586 174.04 334.047C164.824 337.507 155.213 338.072 156.943 330.981C158.673 323.871 160.968 318.886 160.009 313.319C159.05 307.752 153.858 301.996 153.858 301.996C153.858 301.996 159.05 301.808 162.115 304.874C165.181 307.94 166.536 312.548 166.536 312.548C166.536 312.548 167.307 304.103 159.05 300.454C152.749 297.67 140.974 300.36 135.745 301.789L138.322 293.269C139.112 290.692 140.184 288.002 141.256 285.538C143.513 280.328 146.316 275.099 149.758 270.585C151.601 268.177 153.708 265.882 156.115 264.02C159.445 261.444 162.567 258.81 165.407 256.027ZM188.561 84.055C188.561 84.055 184.254 76.7759 177.821 73.9921C171.407 71.2084 144.868 66.4121 137.871 65.5657C130.874 64.7004 119.287 63.9292 119.287 63.9292C119.287 63.9292 119.569 67.1832 119.005 70.1551C118.422 73.1269 116.992 74.3683 116.992 74.3683C116.992 74.3683 118.817 66.807 115.751 59.9041C112.685 53.0012 108.077 44.7628 108.077 44.7628C108.077 44.7628 108.942 55.6909 107.212 59.716C105.481 63.7412 102.415 67.8604 102.904 74.7633C103.375 81.6662 105.876 85.1083 105.876 85.1083C105.876 85.1083 103.676 84.8262 102.622 81.4593C101.569 78.1113 101.287 74.2742 101.287 74.2742C101.287 74.2742 90.3212 88.0237 90.3212 117.78C90.3212 147.536 107.983 173.285 107.983 173.285C107.983 173.285 107.155 166.382 107.494 163.053C107.832 159.705 108.98 158.05 108.98 158.05C108.98 158.05 108.209 166.495 110.372 174.602C112.516 182.709 118.572 193.656 118.572 193.656C118.572 193.656 113.193 186.696 111.557 183.423C109.92 180.169 109.732 178.815 109.732 178.815C109.732 178.815 107.908 191.756 107.343 204.885C106.76 218.013 108.397 240.528 108.397 240.528C108.397 240.528 106.572 236.973 106.196 233.625C105.82 230.277 105.82 230.089 105.82 230.089C105.82 230.089 94.5156 246.283 87.9889 254.24C81.4809 262.196 78.2458 277.958 75.9323 291.218C73.6188 304.479 71.1359 309.275 68.0513 311.382C61.769 315.689 53.7564 320.542 46.1575 313.488C38.0884 306.002 40.0069 295.243 40.0069 295.243C40.0069 295.243 35.9818 298.892 36.1699 305.419C36.358 311.946 37.7122 315.595 37.7122 315.595C37.7122 315.595 23.1164 302.146 32.7278 283.525C42.3204 264.904 70.1767 249.725 74.0137 222.64C77.8508 195.555 62.4838 177.517 54.2266 174.056C45.9694 170.596 41.7374 170.991 41.7374 170.991C41.7374 170.991 44.6151 173.097 46.9287 176.182C49.2422 179.248 49.2422 180.978 49.2422 180.978C49.2422 180.978 39.0665 174.64 21.1978 181.166C3.32921 187.693 -0.112854 206.521 0.451418 213.819C1.0345 221.117 4.47656 228.039 4.47656 228.039C4.47656 228.039 10.8152 213.066 22.1383 214.778C33.4614 216.509 31.5428 226.684 31.5428 226.684C31.5428 226.684 30.3955 222.847 23.4737 221.7C16.552 220.553 13.4861 223.43 13.4861 223.43C13.4861 223.43 26.1634 224.578 23.6618 235.525C21.1602 246.471 17.5113 247.807 16.1758 256.271C14.8216 264.716 16.1758 268.948 16.1758 268.948C16.1758 268.948 13.1099 264.716 9.06598 263.569C5.04083 262.422 2.35114 262.234 2.35114 262.234C2.35114 262.234 11.3795 269.136 7.91862 278.56C4.45775 287.964 4.08157 294.303 5.81201 300.83C7.54244 307.356 10.6083 310.629 10.6083 310.629C10.6083 310.629 7.46721 308.974 4.49537 308.786C1.52354 308.598 0 309.256 0 309.256C0 309.256 10.439 315.388 17.6241 327.181C23.8499 337.395 37.1291 340.235 49.6936 338.598C64.4023 336.699 74.183 331.037 80.8979 318.115C79.5436 309.106 78.1517 296.899 80.1267 289.507C80.1267 289.507 81.0483 312.905 84.4152 323.062C87.7632 333.219 92.5595 350.373 92.7476 355.451C92.9357 360.53 90.1519 363.502 87.481 365.514C84.7913 367.527 84.133 372.116 84.133 372.116C84.133 372.116 83.4559 366.756 85.3744 364.649C87.2929 362.542 90.0767 361.207 90.4529 358.141C90.8291 355.075 89.5877 351.144 89.5877 351.144C89.5877 351.144 87.8572 357.464 84.8854 360.06C81.9135 362.655 76.8351 364.461 75.7818 367.64C74.7285 370.8 74.6344 374.919 76.7411 379.038C78.8477 383.157 81.3493 385.264 81.8195 390.06C82.2897 394.856 81.0483 409.734 81.0483 409.734C81.0483 409.734 80.9543 393.803 80.0891 391.019C79.2239 388.236 78.4527 387.276 78.4527 387.276C78.4527 387.276 79.6941 406.744 79.2239 411.446C78.7536 416.148 74.2394 421.509 75.8758 425.346C77.5122 429.183 83.249 429.371 85.0735 433.584C86.898 437.798 86.6158 439.246 86.6158 439.246C86.6158 439.246 86.7099 441.841 89.1174 441.841C91.525 441.841 94.779 449.892 94.6661 452.864C94.5721 455.835 94.5721 456.306 94.5721 456.306C94.5721 456.306 99.2743 460.914 108.942 459.466C118.629 458.036 122.071 454.857 122.071 454.857C122.071 454.857 117.576 445.284 110.579 439.434C103.582 433.584 101.381 431.873 101.381 431.873C101.381 431.873 99.4624 426.794 97.3558 423.728C95.2492 420.662 92.4655 417.691 92.4655 417.691C92.4655 417.691 92.3714 392.374 93.4247 384.511C94.478 376.649 96.2085 370.912 96.2085 370.912C96.2085 370.912 95.3432 371.872 93.0485 372.549C90.7538 373.226 89.5124 373.32 89.5124 373.32C89.5124 373.32 111.256 364.405 121.225 351.953C131.193 339.501 132.811 327.802 132.924 320.429C133.018 313.056 130.328 293.607 131.588 282.679C132.83 271.751 136.197 265.243 136.197 265.243C136.197 265.243 133.131 278.372 133.507 283.074C133.883 287.776 134.56 292.178 134.56 292.178C134.56 292.178 141.049 270.754 153.708 260.954C166.385 251.155 175.225 240.979 177.896 225.612C180.586 210.245 177.52 197.192 177.52 197.192C177.52 197.192 168.755 194.634 163.677 195.593C158.598 196.552 152.655 199.242 152.655 199.242C152.655 199.242 154.573 196.853 156.68 195.593C158.786 194.351 159.746 193.956 159.746 193.956C159.746 193.956 155.72 193.768 151.977 194.728C148.234 195.687 145.846 197.21 145.846 197.21C145.846 197.21 149.194 192.132 157.526 191.662C165.858 191.192 176.504 195.104 181.771 196.063C187.038 197.022 193.169 196.345 193.169 196.345C193.169 196.345 192.586 198.358 190.875 199.881C189.144 201.405 188.279 201.894 188.279 201.894C188.279 201.894 192.398 201.518 194.505 200.464C196.611 199.411 198.906 197.116 198.906 197.116C198.906 197.116 198.624 199.505 197.759 200.953C196.893 202.383 196.517 202.684 196.517 202.684C196.517 202.684 203.232 198.377 206.58 193.58C209.928 188.784 213.859 180.546 221.345 176.803C228.812 173.06 236.204 167.887 238.706 166.439C241.189 165.009 241.96 163.956 241.96 163.956C241.96 163.956 245.214 165.592 246.361 164.313C247.509 163.016 246.7 158.689 247.753 156.677C248.807 154.664 253.151 152.671 255.014 152.482C256.876 152.294 263.647 153.197 263.647 153.197L268.236 126.676C268.236 126.676 257.891 130.325 252.418 134.539C246.963 138.752 245.816 140.388 245.816 140.388C245.816 140.388 240.455 144.507 238.349 147.573C236.242 150.639 235.189 153.329 229.621 155.812C224.073 158.294 211.79 162.621 207.37 165.31C202.969 168 199.132 174.32 199.132 174.32C199.132 174.32 193.188 172.589 187.15 172.119C181.113 171.63 178.724 171.536 178.724 171.536C178.724 171.536 171.633 162.621 166.272 159.273C160.912 155.925 153.614 154.288 153.614 154.288C153.614 154.288 160.987 154.57 164.73 156.113C168.473 157.655 170.58 159.461 170.58 159.461C170.58 159.461 165.689 151.316 160.235 147.197C154.78 143.078 143.946 137.322 143.946 137.322C143.946 137.322 138.679 131.774 135.708 124.664C132.736 117.573 132.548 112.118 132.548 112.118C132.548 112.118 128.24 110.877 124.779 106.457C121.337 102.055 121.337 96.3937 121.996 92.1805C122.673 87.9673 124.479 86.7259 124.479 86.7259C124.479 86.7259 122.466 92.8576 124.573 99.5725C126.679 106.287 131.946 110.407 136.065 110.106C140.184 109.823 144.491 102.732 152.937 102.243C161.363 101.773 164.73 108.093 173.062 106.363C181.395 104.632 183.99 98.6885 183.99 98.6885C183.99 98.6885 177.671 97.8232 175.263 97.1461C172.874 96.469 170.862 95.9987 170.862 95.9987C170.862 95.9987 170.091 96.8264 170.091 98.2182C170.091 99.6101 170.241 100.701 170.241 100.701C170.241 100.701 168.379 96.6383 170.486 92.4438C172.592 88.2494 174.022 88.4939 174.68 86.8764C175.357 85.2588 175.451 83.9233 175.451 83.9233C175.451 83.9233 175.827 85.8418 175.827 87.2713C175.827 88.7008 175.056 90.1867 175.056 90.1867C175.056 90.1867 178.254 88.1366 180.774 88.0425C183.295 87.9485 186.586 85.5221 188.58 84.149L188.561 84.055Z" fill="white" stroke="#CFCCCC" stroke-width="2" mask="url(#path-1-inside-1_76_9128)"/>
</svg>
