<svg width="278" height="299" viewBox="0 0 278 299" fill="none" xmlns="http://www.w3.org/2000/svg">
<g opacity="0.26">
<path d="M274.873 67.9027C266.015 31.4015 236.587 4.84567 195.308 0.612557C191.483 0.204645 187.538 0.000488281 183.509 0.000488281H60.6257C53.6065 35.1311 80.4781 67.9027 116.303 67.9027H163.822C184.444 67.9027 195.308 79.6166 195.308 97.9436C195.308 125.162 175.587 149.338 147.297 149.338H77.2967C50.2339 149.338 26.9328 168.438 21.6229 194.975L17.137 217.393L5.6955 274.669L0 303.112H80.5169L86.2124 274.669L97.6712 217.393H146.872C198.198 217.393 242.027 190.14 263.499 149.338C272.221 132.779 277.253 113.992 277.593 93.8633V93.7101C277.627 93.013 277.627 92.2991 277.627 91.5851C277.627 83.3395 276.675 75.4172 274.873 67.9027Z" fill="url(#paint0_linear_76_9091)"/>
<path d="M97.674 217.378L86.2156 274.671H5.70337C12.3553 241.36 41.5992 217.378 75.5676 217.378H97.674Z" fill="url(#paint1_linear_76_9091)"/>
<path d="M277.626 91.5911V92.2259C277.626 92.7271 277.609 93.2114 277.593 93.7122V93.8622C276.574 124.776 250.754 149.343 219.623 149.343H147.291C175.582 149.343 195.306 125.16 195.306 97.937C195.306 79.6159 184.45 67.9083 163.824 67.9083H274.87C276.674 75.4247 277.626 83.3408 277.626 91.5911Z" fill="url(#paint2_linear_76_9091)"/>
<path d="M128.735 8.20196e-05C165.427 -0.0567357 195.308 29.4132 195.308 66.1053V97.9436C195.308 79.6165 184.444 67.9027 163.822 67.9027H128.069L128.069 0.000464682C128.291 0.000464682 128.513 0.000473866 128.735 8.20196e-05Z" fill="url(#paint3_linear_76_9091)"/>
</g>
<defs>
<linearGradient id="paint0_linear_76_9091" x1="128.952" y1="-4.7624" x2="143.833" y2="298.261" gradientUnits="userSpaceOnUse">
<stop stop-color="#F4F2F2"/>
<stop offset="1" stop-color="white"/>
</linearGradient>
<linearGradient id="paint1_linear_76_9091" x1="51.6886" y1="218.357" x2="51.6886" y2="271.392" gradientUnits="userSpaceOnUse">
<stop offset="2.77045e-07" stop-color="#600234" stop-opacity="0.7"/>
<stop offset="1" stop-color="white" stop-opacity="0"/>
</linearGradient>
<linearGradient id="paint2_linear_76_9091" x1="212.458" y1="69.2994" x2="212.458" y2="144.683" gradientUnits="userSpaceOnUse">
<stop stop-color="white" stop-opacity="0"/>
<stop offset="1" stop-color="#600234" stop-opacity="0.6"/>
</linearGradient>
<linearGradient id="paint3_linear_76_9091" x1="196.256" y1="48.9717" x2="134.244" y2="48.9717" gradientUnits="userSpaceOnUse">
<stop offset="2.77045e-07" stop-color="#600234" stop-opacity="0.7"/>
<stop offset="1" stop-color="white" stop-opacity="0"/>
</linearGradient>
</defs>
</svg>
