<svg width="203" height="49" viewBox="0 0 203 49" fill="none" xmlns="http://www.w3.org/2000/svg">
<path d="M44.0256 10.8759C42.6069 5.02956 37.8934 0.776192 31.2819 0.0981859C30.6693 0.0328518 30.0375 0.000152588 29.3921 0.000152588H9.71024C8.58601 5.62692 12.89 10.8759 18.6279 10.8759H26.239C29.5419 10.8759 31.282 12.752 31.282 15.6874C31.282 20.047 28.1233 23.9191 23.5922 23.9191H12.3804C8.04582 23.9191 4.31375 26.9784 3.46327 31.2287L2.74479 34.8193L0.912232 43.9931L0 48.5487H12.8962L13.8084 43.9931L15.6437 34.8193H23.5241C31.7448 34.8193 38.7648 30.4543 42.204 23.9191C43.6009 21.2669 44.4069 18.2579 44.4613 15.0339V15.0094C44.4668 14.8977 44.4668 14.7834 44.4668 14.669C44.4667 13.3483 44.3142 12.0794 44.0256 10.8759Z" fill="url(#paint0_linear_51_2011)"/>
<path d="M15.6443 34.817L13.809 43.9934H0.913574C1.979 38.6581 6.66292 34.817 12.1035 34.817H15.6443Z" fill="url(#paint1_linear_51_2011)"/>
<path d="M44.4668 14.67V14.7716C44.4668 14.8519 44.4641 14.9295 44.4614 15.0097V15.0337C44.2983 19.9851 40.1628 23.92 35.1766 23.92H23.5913C28.1227 23.92 31.2818 20.0466 31.2818 15.6864C31.2818 12.7519 29.5431 10.8767 26.2395 10.8767H44.0254C44.3143 12.0806 44.4668 13.3485 44.4668 14.67Z" fill="url(#paint2_linear_51_2011)"/>
<path d="M20.6189 1.31369e-05C26.4957 -0.0090872 31.2817 4.71103 31.2817 10.5879V15.6874C31.2817 12.752 29.5417 10.8758 26.2387 10.8758H20.5122L20.5123 7.44268e-05C20.5478 7.44268e-05 20.5834 7.58978e-05 20.6189 1.31369e-05Z" fill="url(#paint3_linear_51_2011)"/>
<path d="M52.5489 13.2789H57.7558L53.9831 35.104H48.8387L52.5489 13.2789ZM55.0432 17.5816L55.7603 13.2789H59.7824C61.4244 13.2997 62.8067 13.5907 63.9291 14.1519C65.0723 14.7131 65.9038 15.5238 66.4234 16.5838C66.9639 17.6439 67.1509 18.9222 66.9846 20.4188C66.8184 21.8946 66.3195 23.1729 65.4881 24.2538C64.6566 25.3139 63.5654 26.1245 62.2143 26.6857C60.884 27.2469 59.3667 27.5276 57.6622 27.5276H53.2972L54.0767 23.1937H58.0987C58.7431 23.1937 59.3459 23.0898 59.9071 22.8819C60.4683 22.6533 60.9256 22.3311 61.2789 21.9154C61.6531 21.4997 61.8921 20.9904 61.9961 20.3876C62.1208 19.8056 62.0792 19.3068 61.8713 18.8911C61.6635 18.4754 61.3413 18.1532 60.9048 17.9245C60.4683 17.6959 59.9383 17.5816 59.3147 17.5816H55.0432ZM71.0532 35.104L71.8015 30.7701H82.5893L81.841 35.104H71.0532ZM74.0464 17.6127L74.8258 13.2789H85.5825L84.803 17.6127H74.0464ZM72.6433 25.7504L73.3916 21.5101H83.5559L82.8076 25.7504H72.6433ZM71.3962 13.2789H76.4159L72.6433 35.104H67.6859L71.3962 13.2789ZM89.6345 13.2789H94.8413L91.8793 30.5831H100.391L99.5805 35.104H85.893L89.6345 13.2789ZM107.046 24.1914C106.921 25.0437 106.921 25.8647 107.046 26.6546C107.171 27.4236 107.42 28.12 107.794 28.7435C108.189 29.3463 108.709 29.8348 109.353 30.2089C110.018 30.5623 110.808 30.739 111.723 30.739C112.658 30.7597 113.531 30.6039 114.342 30.2713C115.153 29.9179 115.88 29.4398 116.524 28.8371C117.169 28.2343 117.699 27.538 118.114 26.7481C118.551 25.9374 118.842 25.0852 118.987 24.1914C119.112 23.3392 119.112 22.5286 118.987 21.7595C118.863 20.9696 118.603 20.2629 118.208 19.6394C117.834 19.0158 117.314 18.5273 116.649 18.174C116.005 17.7998 115.215 17.6127 114.28 17.6127C113.344 17.6127 112.471 17.779 111.66 18.1116C110.85 18.4442 110.122 18.9222 109.478 19.5458C108.854 20.1486 108.324 20.8449 107.888 21.6348C107.472 22.4246 107.192 23.2769 107.046 24.1914ZM101.559 24.1914C101.808 22.5701 102.317 21.0736 103.086 19.7017C103.876 18.3091 104.864 17.0931 106.048 16.0538C107.233 15.0145 108.574 14.2143 110.07 13.6531C111.567 13.0711 113.136 12.78 114.778 12.78C116.42 12.78 117.886 13.0814 119.175 13.6842C120.484 14.2662 121.565 15.0873 122.417 16.1473C123.29 17.1866 123.903 18.4026 124.257 19.7952C124.61 21.1671 124.683 22.6325 124.475 24.1914C124.225 25.8127 123.716 27.3301 122.947 28.7435C122.178 30.1362 121.191 31.3625 119.985 32.4226C118.8 33.4827 117.46 34.3141 115.963 34.9169C114.467 35.4989 112.876 35.7899 111.193 35.7899C109.53 35.7899 108.044 35.4781 106.734 34.8545C105.446 34.231 104.375 33.3891 103.523 32.3291C102.671 31.2482 102.078 30.0115 101.746 28.6188C101.413 27.2262 101.351 25.7504 101.559 24.1914ZM125.585 17.9869L126.427 13.2789H143.263L142.453 17.9869H136.653L133.691 35.104H128.516L131.447 17.9869H125.585ZM146.385 24.1914C146.26 25.0437 146.26 25.8647 146.385 26.6546C146.509 27.4236 146.759 28.12 147.133 28.7435C147.528 29.3463 148.048 29.8348 148.692 30.2089C149.357 30.5623 150.147 30.739 151.062 30.739C151.997 30.7597 152.87 30.6039 153.681 30.2713C154.491 29.9179 155.219 29.4398 155.863 28.8371C156.507 28.2343 157.037 27.538 157.453 26.7481C157.89 25.9374 158.181 25.0852 158.326 24.1914C158.451 23.3392 158.451 22.5286 158.326 21.7595C158.201 20.9696 157.942 20.2629 157.547 19.6394C157.173 19.0158 156.653 18.5273 155.988 18.174C155.343 17.7998 154.554 17.6127 153.618 17.6127C152.683 17.6127 151.81 17.779 150.999 18.1116C150.189 18.4442 149.461 18.9222 148.817 19.5458C148.193 20.1486 147.663 20.8449 147.227 21.6348C146.811 22.4246 146.53 23.2769 146.385 24.1914ZM140.897 24.1914C141.147 22.5701 141.656 21.0736 142.425 19.7017C143.215 18.3091 144.202 17.0931 145.387 16.0538C146.572 15.0145 147.913 14.2143 149.409 13.6531C150.906 13.0711 152.475 12.78 154.117 12.78C155.759 12.78 157.225 13.0814 158.513 13.6842C159.823 14.2662 160.904 15.0873 161.756 16.1473C162.629 17.1866 163.242 18.4026 163.595 19.7952C163.949 21.1671 164.021 22.6325 163.814 24.1914C163.564 25.8127 163.055 27.3301 162.286 28.7435C161.517 30.1362 160.529 31.3625 159.324 32.4226C158.139 33.4827 156.798 34.3141 155.302 34.9169C153.805 35.4989 152.215 35.7899 150.532 35.7899C148.869 35.7899 147.382 35.4781 146.073 34.8545C144.784 34.231 143.714 33.3891 142.862 32.3291C142.009 31.2482 141.417 30.0115 141.084 28.6188C140.752 27.2262 140.689 25.7504 140.897 24.1914ZM183.452 13.2789H188.472L184.544 36.1329L172.228 22.7884L170.108 35.104H165.088L168.985 12.25L181.332 25.5945L183.452 13.2789Z" fill="#262932"/>
<defs>
<linearGradient id="paint0_linear_51_2011" x1="20.6539" y1="-0.762706" x2="23.0373" y2="47.7717" gradientUnits="userSpaceOnUse">
<stop stop-color="#E60A14"/>
<stop offset="1" stop-color="#FF0000"/>
</linearGradient>
<linearGradient id="paint1_linear_51_2011" x1="8.2789" y1="34.9736" x2="8.2789" y2="43.4682" gradientUnits="userSpaceOnUse">
<stop offset="2.77045e-07" stop-color="#600234" stop-opacity="0.7"/>
<stop offset="1" stop-color="white" stop-opacity="0"/>
</linearGradient>
<linearGradient id="paint2_linear_51_2011" x1="34.0291" y1="11.0995" x2="34.0291" y2="23.1735" gradientUnits="userSpaceOnUse">
<stop stop-color="white" stop-opacity="0"/>
<stop offset="1" stop-color="#600234" stop-opacity="0.6"/>
</linearGradient>
<linearGradient id="paint3_linear_51_2011" x1="31.4337" y1="7.84366" x2="21.5013" y2="7.84366" gradientUnits="userSpaceOnUse">
<stop offset="2.77045e-07" stop-color="#600234" stop-opacity="0.7"/>
<stop offset="1" stop-color="white" stop-opacity="0"/>
</linearGradient>
</defs>
</svg>
