<svg width="298" height="507" viewBox="0 0 298 507" fill="none" xmlns="http://www.w3.org/2000/svg">
<g clip-path="url(#clip0_51_5603)">
<rect width="297.508" height="506.734" fill="url(#paint0_linear_51_5603)"/>
<path d="M76.7022 191.572C78.2913 191.572 79.6214 191.772 80.6925 192.173C81.7637 192.573 82.7819 193.161 83.7471 193.938L82.0344 195.933C81.2693 195.286 80.4571 194.827 79.5978 194.556C78.7503 194.274 77.8616 194.132 76.9317 194.132C75.6016 194.132 74.3716 194.45 73.2416 195.086C72.1116 195.71 71.1994 196.752 70.5049 198.211C69.8222 199.659 69.4808 201.625 69.4808 204.108C69.4808 206.521 69.8045 208.458 70.4519 209.917C71.1111 211.377 71.9998 212.43 73.118 213.078C74.2362 213.725 75.4839 214.049 76.8611 214.049C78.2265 214.049 79.3448 213.843 80.2158 213.431C81.0986 213.019 81.8637 212.548 82.5111 212.018L84.1002 214.031C83.3586 214.749 82.3934 215.373 81.2046 215.903C80.0157 216.421 78.5561 216.68 76.8258 216.68C74.8601 216.68 73.0768 216.197 71.476 215.232C69.8869 214.267 68.6274 212.854 67.6975 210.994C66.7676 209.123 66.3027 206.827 66.3027 204.108C66.3027 201.377 66.7735 199.082 67.7152 197.222C68.6686 195.363 69.934 193.956 71.5113 193.002C73.1003 192.049 74.8307 191.572 76.7022 191.572ZM88.9595 216.273V213.996H91.8551V199.959H88.9595V197.681H94.1151L94.6625 202.078C95.3805 200.548 96.2515 199.365 97.2756 198.529C98.2997 197.693 99.6533 197.275 101.337 197.275C101.854 197.275 102.314 197.317 102.714 197.399C103.126 197.47 103.544 197.564 103.967 197.681L103.102 200.33C102.714 200.224 102.361 200.147 102.043 200.1C101.725 200.041 101.36 200.012 100.948 200.012C99.5238 200.012 98.2997 200.518 97.2756 201.53C96.2515 202.543 95.4335 204.073 94.8214 206.121V213.996H98.5998V216.273H88.9595ZM101.107 203.967V199.924L101.407 197.681H103.967L103.544 203.967H101.107ZM125.424 197.681L118.891 216.397C118.455 217.657 117.902 218.81 117.231 219.858C116.572 220.905 115.707 221.77 114.636 222.453C113.576 223.148 112.228 223.577 110.592 223.742L110.133 221.376C111.416 221.164 112.429 220.841 113.17 220.405C113.912 219.969 114.494 219.41 114.918 218.728C115.354 218.045 115.736 217.227 116.066 216.273H115.077L108.579 197.681H111.758L117.09 214.013L122.351 197.681H125.424ZM139.446 197.293C141.094 197.293 142.407 197.693 143.384 198.494C144.373 199.294 145.085 200.424 145.52 201.884C145.956 203.331 146.173 205.026 146.173 206.969C146.173 208.84 145.909 210.512 145.379 211.983C144.861 213.443 144.072 214.59 143.013 215.426C141.954 216.262 140.618 216.68 139.005 216.68C136.969 216.68 135.333 215.962 134.097 214.525V223.389L131.13 223.76V197.681H133.655L133.902 200.277C134.585 199.323 135.397 198.588 136.339 198.07C137.292 197.552 138.328 197.293 139.446 197.293ZM138.74 199.677C137.716 199.677 136.81 199.988 136.021 200.612C135.244 201.224 134.603 201.907 134.097 202.66V211.877C134.579 212.595 135.185 213.166 135.915 213.59C136.657 214.002 137.469 214.208 138.352 214.208C139.894 214.208 141.053 213.619 141.83 212.442C142.607 211.265 142.995 209.435 142.995 206.951C142.995 205.327 142.842 203.979 142.536 202.908C142.23 201.825 141.765 201.018 141.141 200.489C140.518 199.947 139.717 199.677 138.74 199.677ZM167.065 215.338C166.429 215.761 165.658 216.091 164.752 216.326C163.845 216.562 162.957 216.68 162.086 216.68C160.085 216.68 158.543 216.156 157.46 215.108C156.377 214.061 155.835 212.713 155.835 211.065V199.977H151.563V197.681H155.835V193.462L158.802 193.108V197.681H165.228L164.875 199.977H158.802V211.03C158.802 212.065 159.072 212.854 159.614 213.395C160.167 213.937 161.079 214.208 162.35 214.208C163.045 214.208 163.686 214.125 164.275 213.96C164.864 213.796 165.411 213.584 165.917 213.325L167.065 215.338ZM180.558 197.293C182.312 197.293 183.777 197.693 184.954 198.494C186.143 199.282 187.032 200.4 187.62 201.848C188.221 203.296 188.521 205.003 188.521 206.969C188.521 208.864 188.215 210.541 187.603 212.001C186.991 213.46 186.09 214.608 184.901 215.444C183.724 216.268 182.265 216.68 180.523 216.68C178.781 216.68 177.315 216.279 176.126 215.479C174.937 214.678 174.037 213.554 173.425 212.107C172.824 210.647 172.524 208.946 172.524 207.004C172.524 205.085 172.83 203.396 173.442 201.937C174.055 200.477 174.955 199.341 176.144 198.529C177.344 197.705 178.816 197.293 180.558 197.293ZM180.558 199.712C178.957 199.712 177.745 200.306 176.921 201.495C176.109 202.672 175.702 204.508 175.702 207.004C175.702 209.452 176.103 211.271 176.903 212.46C177.715 213.649 178.922 214.243 180.523 214.243C182.123 214.243 183.324 213.649 184.124 212.46C184.937 211.271 185.343 209.44 185.343 206.969C185.343 204.497 184.943 202.672 184.142 201.495C183.342 200.306 182.147 199.712 180.558 199.712ZM69.8585 236.465C69.8585 235.205 69.6113 234.211 69.1169 233.481C68.6226 232.739 67.9457 232.21 67.0865 231.892C66.2272 231.562 65.2443 231.397 64.1379 231.397H60.6243V241.779H64.0143C65.156 241.779 66.1624 241.626 67.0335 241.32C67.9045 241.002 68.5931 240.461 69.0993 239.696C69.6054 238.919 69.8585 237.842 69.8585 236.465ZM73.1426 236.429C73.1426 238.324 72.7365 239.843 71.9243 240.985C71.1239 242.126 70.0174 242.956 68.6049 243.474C67.1924 243.992 65.568 244.251 63.7318 244.251H60.6243V253.273H57.5521V228.961H63.7671C66.6627 228.961 68.9462 229.573 70.6177 230.797C72.3009 232.009 73.1426 233.887 73.1426 236.429ZM85.4352 227.195V248.683C85.4352 249.601 85.7177 250.254 86.2827 250.643C86.8594 251.019 87.601 251.208 88.5074 251.208C89.0724 251.208 89.6079 251.149 90.1141 251.031C90.6202 250.913 91.1264 250.754 91.6325 250.554L92.427 252.726C91.9209 252.973 91.2912 253.191 90.5378 253.379C89.7963 253.579 88.9546 253.68 88.013 253.68C86.3651 253.68 85.0291 253.226 84.005 252.32C82.9809 251.402 82.4689 250.137 82.4689 248.524V229.543H76.7659V227.195H85.4352ZM112.683 249.212C112.683 249.954 112.806 250.496 113.053 250.837C113.301 251.178 113.683 251.431 114.201 251.596L113.477 253.68C112.677 253.574 111.976 253.321 111.376 252.92C110.776 252.508 110.34 251.89 110.069 251.066C109.399 251.926 108.563 252.579 107.562 253.026C106.562 253.462 105.455 253.68 104.243 253.68C102.383 253.68 100.918 253.156 99.8465 252.108C98.7754 251.061 98.2398 249.672 98.2398 247.941C98.2398 246.023 98.9873 244.551 100.482 243.527C101.977 242.503 104.137 241.991 106.962 241.991H109.699V240.437C109.699 239.095 109.304 238.148 108.516 237.595C107.739 237.03 106.656 236.747 105.267 236.747C104.655 236.747 103.937 236.824 103.113 236.977C102.289 237.118 101.394 237.359 100.429 237.701L99.6523 235.458C100.794 235.035 101.865 234.734 102.866 234.558C103.866 234.381 104.82 234.293 105.726 234.293C108.045 234.293 109.781 234.834 110.935 235.917C112.1 236.988 112.683 238.448 112.683 240.296V249.212ZM105.002 251.42C105.92 251.42 106.797 251.19 107.633 250.731C108.469 250.26 109.157 249.613 109.699 248.789V244.004H107.015C104.967 244.004 103.519 244.357 102.672 245.063C101.836 245.77 101.418 246.717 101.418 247.906C101.418 249.059 101.712 249.936 102.301 250.537C102.901 251.125 103.802 251.42 105.002 251.42ZM135.304 252.338C134.669 252.761 133.898 253.091 132.991 253.326C132.085 253.562 131.196 253.68 130.325 253.68C128.324 253.68 126.782 253.156 125.699 252.108C124.616 251.061 124.075 249.713 124.075 248.065V236.977H119.802V234.681H124.075V230.462L127.041 230.108V234.681H133.468L133.115 236.977H127.041V248.03C127.041 249.065 127.312 249.854 127.853 250.395C128.406 250.937 129.319 251.208 130.59 251.208C131.284 251.208 131.926 251.125 132.514 250.96C133.103 250.796 133.65 250.584 134.156 250.325L135.304 252.338ZM152.699 226.824C153.7 226.824 154.606 226.913 155.418 227.089C156.231 227.266 157.002 227.513 157.731 227.831L156.778 230.038C156.178 229.779 155.542 229.585 154.871 229.455C154.2 229.326 153.506 229.261 152.788 229.261C151.493 229.261 150.516 229.514 149.857 230.02C149.209 230.526 148.886 231.303 148.886 232.351V236.129H155.189L154.871 238.46H148.886V253.273H145.919V238.46H141.488V236.129H145.919V232.421C145.919 231.268 146.214 230.273 146.802 229.437C147.403 228.602 148.215 227.96 149.239 227.513C150.263 227.054 151.416 226.824 152.699 226.824ZM169.971 234.293C171.725 234.293 173.19 234.693 174.367 235.494C175.556 236.282 176.445 237.4 177.034 238.848C177.634 240.296 177.934 242.003 177.934 243.969C177.934 245.864 177.628 247.541 177.016 249.001C176.404 250.46 175.503 251.608 174.315 252.444C173.137 253.268 171.678 253.68 169.936 253.68C168.194 253.68 166.728 253.279 165.539 252.479C164.351 251.678 163.45 250.554 162.838 249.107C162.238 247.647 161.937 245.946 161.937 244.004C161.937 242.085 162.244 240.396 162.856 238.937C163.468 237.477 164.368 236.341 165.557 235.529C166.758 234.705 168.229 234.293 169.971 234.293ZM169.971 236.712C168.37 236.712 167.158 237.306 166.334 238.495C165.522 239.672 165.116 241.508 165.116 244.004C165.116 246.452 165.516 248.271 166.316 249.46C167.128 250.649 168.335 251.243 169.936 251.243C171.537 251.243 172.737 250.649 173.538 249.46C174.35 248.271 174.756 246.44 174.756 243.969C174.756 241.497 174.356 239.672 173.555 238.495C172.755 237.306 171.56 236.712 169.971 236.712ZM184.241 253.273V250.996H187.137V236.959H184.241V234.681H189.397L189.944 239.078C190.662 237.548 191.533 236.365 192.557 235.529C193.581 234.693 194.935 234.275 196.618 234.275C197.136 234.275 197.595 234.317 197.995 234.399C198.407 234.47 198.825 234.564 199.249 234.681L198.384 237.33C197.995 237.224 197.642 237.147 197.324 237.1C197.007 237.041 196.642 237.012 196.23 237.012C194.806 237.012 193.581 237.518 192.557 238.53C191.533 239.543 190.715 241.073 190.103 243.121V250.996H193.881V253.273H184.241ZM196.389 240.967V236.924L196.689 234.681H199.249L198.825 240.967H196.389ZM217.492 234.293C218.092 234.293 218.663 234.422 219.204 234.681C219.758 234.94 220.211 235.441 220.564 236.182C220.917 236.924 221.094 238.007 221.094 239.431V253.273H218.339V239.908C218.339 238.742 218.269 237.901 218.127 237.383C217.986 236.865 217.58 236.606 216.909 236.606C216.356 236.606 215.803 236.782 215.249 237.136C214.708 237.477 214.178 238.042 213.66 238.831V253.273H210.888V239.908C210.888 238.742 210.818 237.901 210.676 237.383C210.535 236.865 210.129 236.606 209.458 236.606C208.881 236.606 208.322 236.782 207.781 237.136C207.251 237.477 206.727 238.042 206.209 238.831V253.273H203.473V234.681H205.803L205.98 236.835C206.486 236.117 207.051 235.517 207.675 235.035C208.311 234.54 209.093 234.293 210.023 234.293C210.729 234.293 211.394 234.464 212.018 234.805C212.642 235.135 213.101 235.782 213.396 236.747C213.902 236.017 214.473 235.429 215.108 234.982C215.744 234.522 216.538 234.293 217.492 234.293ZM232.733 251.225C234.157 251.225 235.281 250.96 236.105 250.431C236.941 249.889 237.359 249.171 237.359 248.277C237.359 247.712 237.253 247.223 237.041 246.811C236.841 246.399 236.423 246.028 235.788 245.699C235.152 245.369 234.175 245.04 232.857 244.71C231.574 244.392 230.455 244.027 229.502 243.615C228.56 243.192 227.825 242.644 227.295 241.973C226.777 241.302 226.518 240.431 226.518 239.36C226.518 238.313 226.812 237.412 227.401 236.659C228.001 235.894 228.831 235.311 229.89 234.911C230.95 234.499 232.18 234.293 233.58 234.293C235.075 234.293 236.376 234.493 237.483 234.893C238.601 235.282 239.548 235.764 240.325 236.341L239.019 238.354C238.312 237.871 237.535 237.477 236.688 237.171C235.84 236.853 234.816 236.694 233.616 236.694C232.156 236.694 231.12 236.924 230.508 237.383C229.896 237.83 229.59 238.413 229.59 239.131C229.59 239.672 229.737 240.125 230.032 240.49C230.338 240.843 230.85 241.167 231.568 241.461C232.286 241.744 233.274 242.056 234.534 242.397C235.746 242.715 236.8 243.098 237.694 243.545C238.601 243.992 239.307 244.581 239.813 245.31C240.319 246.04 240.572 246.982 240.572 248.135C240.572 249.454 240.196 250.525 239.442 251.349C238.689 252.161 237.712 252.756 236.511 253.132C235.323 253.497 234.063 253.68 232.733 253.68C231.05 253.68 229.614 253.438 228.425 252.956C227.248 252.461 226.259 251.867 225.459 251.172L227.154 249.212C227.883 249.813 228.719 250.301 229.661 250.678C230.614 251.043 231.638 251.225 232.733 251.225Z" fill="#262932"/>
<g clip-path="url(#clip1_51_5603)">
<rect width="297.508" height="506.734" fill="url(#paint1_linear_51_5603)"/>
<path d="M131.609 627.01C132.04 530.069 210.374 451.59 307.315 452.171L391.432 452.676C343.011 452.385 311.891 480.901 311.564 535.386L310.998 629.846L131.599 628.769C131.603 628.183 131.606 627.596 131.609 627.01Z" fill="url(#paint2_linear_51_5603)"/>
</g>
</g>
<defs>
<linearGradient id="paint0_linear_51_5603" x1="138.186" y1="-7.96248" x2="176.863" y2="496.883" gradientUnits="userSpaceOnUse">
<stop stop-color="#E60A14"/>
<stop offset="1" stop-color="#FF0000"/>
</linearGradient>
<linearGradient id="paint1_linear_51_5603" x1="138.186" y1="-7.96248" x2="176.863" y2="496.883" gradientUnits="userSpaceOnUse">
<stop stop-color="#E60A14"/>
<stop offset="1" stop-color="#FF0000"/>
</linearGradient>
<linearGradient id="paint2_linear_51_5603" x1="262.063" y1="449.394" x2="261.08" y2="613.23" gradientUnits="userSpaceOnUse">
<stop offset="2.77045e-07" stop-color="#600234" stop-opacity="0.7"/>
<stop offset="1" stop-color="white" stop-opacity="0"/>
</linearGradient>
<clipPath id="clip0_51_5603">
<rect width="297.508" height="506.734" fill="white"/>
</clipPath>
<clipPath id="clip1_51_5603">
<rect width="297.508" height="506.734" fill="white"/>
</clipPath>
</defs>
</svg>
